G04 #@! TF.GenerationSoftware,KiCad,Pcbnew,7.0.10*
G04 #@! TF.CreationDate,2024-03-15T17:14:54-07:00*
G04 #@! TF.ProjectId,testboard,74657374-626f-4617-9264-2e6b69636164,rev?*
G04 #@! TF.SameCoordinates,Original*
G04 #@! TF.FileFunction,Soldermask,Bot*
G04 #@! TF.FilePolarity,Negative*
%FSLAX46Y46*%
G04 Gerber Fmt 4.6, Leading zero omitted, Abs format (unit mm)*
G04 Created by KiCad (PCBNEW 7.0.10) date 2024-03-15 17:14:54*
%MOMM*%
%LPD*%
G01*
G04 APERTURE LIST*
G04 Aperture macros list*
%AMRoundRect*
0 Rectangle with rounded corners*
0 $1 Rounding radius*
0 $2 $3 $4 $5 $6 $7 $8 $9 X,Y pos of 4 corners*
0 Add a 4 corners polygon primitive as box body*
4,1,4,$2,$3,$4,$5,$6,$7,$8,$9,$2,$3,0*
0 Add four circle primitives for the rounded corners*
1,1,$1+$1,$2,$3*
1,1,$1+$1,$4,$5*
1,1,$1+$1,$6,$7*
1,1,$1+$1,$8,$9*
0 Add four rect primitives between the rounded corners*
20,1,$1+$1,$2,$3,$4,$5,0*
20,1,$1+$1,$4,$5,$6,$7,0*
20,1,$1+$1,$6,$7,$8,$9,0*
20,1,$1+$1,$8,$9,$2,$3,0*%
G04 Aperture macros list end*
%ADD10C,3.200000*%
%ADD11O,1.600000X0.900000*%
%ADD12R,1.200000X1.200000*%
%ADD13C,1.200000*%
%ADD14R,1.600000X1.600000*%
%ADD15C,1.600000*%
%ADD16R,2.000000X4.600000*%
%ADD17O,2.000000X4.200000*%
%ADD18O,4.200000X2.000000*%
%ADD19R,1.422400X1.422400*%
%ADD20C,1.000000*%
%ADD21O,1.600000X1.600000*%
%ADD22C,4.000000*%
%ADD23C,2.000000*%
%ADD24R,1.800000X1.800000*%
%ADD25C,1.800000*%
%ADD26C,2.500000*%
%ADD27C,1.524000*%
%ADD28RoundRect,0.225000X0.250000X-0.225000X0.250000X0.225000X-0.250000X0.225000X-0.250000X-0.225000X0*%
%ADD29RoundRect,0.225000X-0.250000X0.225000X-0.250000X-0.225000X0.250000X-0.225000X0.250000X0.225000X0*%
%ADD30RoundRect,0.225000X0.225000X0.250000X-0.225000X0.250000X-0.225000X-0.250000X0.225000X-0.250000X0*%
%ADD31RoundRect,0.225000X-0.225000X-0.250000X0.225000X-0.250000X0.225000X0.250000X-0.225000X0.250000X0*%
%ADD32RoundRect,0.200000X0.200000X0.275000X-0.200000X0.275000X-0.200000X-0.275000X0.200000X-0.275000X0*%
G04 APERTURE END LIST*
D10*
X186500000Y-21000000D03*
X186500000Y-156500000D03*
X28500000Y-156500000D03*
D11*
X26575000Y-22350000D03*
X26575000Y-28950000D03*
D12*
X129157500Y-103583000D03*
D13*
X129157500Y-101043000D03*
X129157500Y-98503000D03*
X129157500Y-95963000D03*
X129157500Y-93423000D03*
X129157500Y-90883000D03*
X129157500Y-88343000D03*
X129157500Y-85803000D03*
X129157500Y-83263000D03*
X129157500Y-80723000D03*
X129157500Y-78183000D03*
X129157500Y-75643000D03*
X129157500Y-73103000D03*
X129157500Y-70563000D03*
X129157500Y-68023000D03*
X129157500Y-65483000D03*
X129157500Y-62943000D03*
X129157500Y-60403000D03*
X131697500Y-103583000D03*
X131697500Y-101043000D03*
X131697500Y-98503000D03*
X131697500Y-95963000D03*
X131697500Y-93423000D03*
X131697500Y-90883000D03*
X131697500Y-88343000D03*
X131697500Y-85803000D03*
X131697500Y-83263000D03*
X131697500Y-80723000D03*
X131697500Y-78183000D03*
X131697500Y-75643000D03*
X131697500Y-73103000D03*
X131697500Y-70563000D03*
X131697500Y-68023000D03*
X131697500Y-65483000D03*
X131697500Y-62943000D03*
X131697500Y-60403000D03*
X134237500Y-103583000D03*
X134237500Y-101043000D03*
X134237500Y-98503000D03*
X134237500Y-95963000D03*
X134237500Y-93423000D03*
X134237500Y-90883000D03*
X134237500Y-88343000D03*
X134237500Y-85803000D03*
X134237500Y-83263000D03*
X134237500Y-80723000D03*
X134237500Y-78183000D03*
X134237500Y-75643000D03*
X134237500Y-73103000D03*
X134237500Y-70563000D03*
X134237500Y-68023000D03*
X134237500Y-65483000D03*
X134237500Y-62943000D03*
X134237500Y-60403000D03*
X136777500Y-103583000D03*
X136777500Y-101043000D03*
X136777500Y-98503000D03*
X136777500Y-65483000D03*
X136777500Y-62943000D03*
X136777500Y-60403000D03*
X139317500Y-103583000D03*
X139317500Y-101043000D03*
X139317500Y-98503000D03*
X139317500Y-65483000D03*
X139317500Y-62943000D03*
X139317500Y-60403000D03*
X141857500Y-103583000D03*
X141857500Y-101043000D03*
X141857500Y-98503000D03*
X141857500Y-65483000D03*
X141857500Y-62943000D03*
X141857500Y-60403000D03*
X144397500Y-103583000D03*
X144397500Y-101043000D03*
X144397500Y-98503000D03*
X144397500Y-65483000D03*
X144397500Y-62943000D03*
X144397500Y-60403000D03*
X146937500Y-103583000D03*
X146937500Y-101043000D03*
X146937500Y-98503000D03*
X146937500Y-65483000D03*
X146937500Y-62943000D03*
X146937500Y-60403000D03*
X149477500Y-103583000D03*
X149477500Y-101043000D03*
X149477500Y-98503000D03*
X149477500Y-65483000D03*
X149477500Y-62943000D03*
X149477500Y-60403000D03*
X152017500Y-103583000D03*
X152017500Y-101043000D03*
X152017500Y-98503000D03*
X152017500Y-65483000D03*
X152017500Y-62943000D03*
X152017500Y-60403000D03*
X154557500Y-103583000D03*
X154557500Y-101043000D03*
X154557500Y-98503000D03*
X154557500Y-65483000D03*
X154557500Y-62943000D03*
X154557500Y-60403000D03*
X157097500Y-103583000D03*
X157097500Y-101043000D03*
X157097500Y-98503000D03*
X157097500Y-65483000D03*
X157097500Y-62943000D03*
X157097500Y-60403000D03*
X159637500Y-103583000D03*
X159637500Y-101043000D03*
X159637500Y-98503000D03*
X159637500Y-65483000D03*
X159637500Y-62943000D03*
X159637500Y-60403000D03*
X162177500Y-103583000D03*
X162177500Y-101043000D03*
X162177500Y-98503000D03*
X162177500Y-65483000D03*
X162177500Y-62943000D03*
X162177500Y-60403000D03*
X164717500Y-103583000D03*
X164717500Y-101043000D03*
X164717500Y-98503000D03*
X164717500Y-65483000D03*
X164717500Y-62943000D03*
X164717500Y-60403000D03*
X167257500Y-103583000D03*
X167257500Y-101043000D03*
X167257500Y-98503000D03*
X167257500Y-95963000D03*
X167257500Y-93423000D03*
X167257500Y-90883000D03*
X167257500Y-88343000D03*
X167257500Y-85803000D03*
X167257500Y-83263000D03*
X167257500Y-80723000D03*
X167257500Y-78183000D03*
X167257500Y-75643000D03*
X167257500Y-73103000D03*
X167257500Y-70563000D03*
X167257500Y-68023000D03*
X167257500Y-65483000D03*
X167257500Y-62943000D03*
X167257500Y-60403000D03*
X169797500Y-103583000D03*
X169797500Y-101043000D03*
X169797500Y-98503000D03*
X169797500Y-95963000D03*
X169797500Y-93423000D03*
X169797500Y-90883000D03*
X169797500Y-88343000D03*
X169797500Y-85803000D03*
X169797500Y-83263000D03*
X169797500Y-80723000D03*
X169797500Y-78183000D03*
X169797500Y-75643000D03*
X169797500Y-73103000D03*
X169797500Y-70563000D03*
X169797500Y-68023000D03*
X169797500Y-65483000D03*
X169797500Y-62943000D03*
X169797500Y-60403000D03*
X172337500Y-101043000D03*
X172337500Y-98503000D03*
X172337500Y-95963000D03*
X172337500Y-93423000D03*
X172337500Y-90883000D03*
X172337500Y-88343000D03*
X172337500Y-85803000D03*
X172337500Y-83263000D03*
X172337500Y-80723000D03*
X172337500Y-78183000D03*
X172337500Y-75643000D03*
X172337500Y-73103000D03*
X172337500Y-70563000D03*
X172337500Y-68023000D03*
X172337500Y-65483000D03*
X172337500Y-62943000D03*
X172337500Y-60403000D03*
D14*
X77250000Y-119294900D03*
D15*
X77250000Y-121294900D03*
D16*
X36830000Y-37450000D03*
D17*
X30530000Y-37450000D03*
D18*
X33930000Y-42250000D03*
D19*
X101900000Y-120480000D03*
D13*
X101900000Y-123020000D03*
X99360000Y-120480000D03*
X99360000Y-123020000D03*
X96820000Y-120480000D03*
X96820000Y-123020000D03*
X94280000Y-120480000D03*
X94280000Y-123020000D03*
X91740000Y-120480000D03*
X89200000Y-123020000D03*
X91740000Y-123020000D03*
X89200000Y-125560000D03*
X91740000Y-125560000D03*
X89200000Y-128100000D03*
X91740000Y-128100000D03*
X89200000Y-130640000D03*
X91740000Y-130640000D03*
X89200000Y-133180000D03*
X91740000Y-133180000D03*
X89200000Y-135720000D03*
X91740000Y-135720000D03*
X89200000Y-138260000D03*
X91740000Y-138260000D03*
X89200000Y-140800000D03*
X91740000Y-140800000D03*
X89200000Y-143340000D03*
X91740000Y-145880000D03*
X91740000Y-143340000D03*
X94280000Y-145880000D03*
X94280000Y-143340000D03*
X96820000Y-145880000D03*
X96820000Y-143340000D03*
X99360000Y-145880000D03*
X99360000Y-143340000D03*
X101900000Y-145880000D03*
X101900000Y-143340000D03*
X104440000Y-145880000D03*
X104440000Y-143340000D03*
X106980000Y-145880000D03*
X106980000Y-143340000D03*
X109520000Y-145880000D03*
X109520000Y-143340000D03*
X112060000Y-145880000D03*
X114600000Y-143340000D03*
X112060000Y-143340000D03*
X114600000Y-140800000D03*
X112060000Y-140800000D03*
X114600000Y-138260000D03*
X112060000Y-138260000D03*
X114600000Y-135720000D03*
X112060000Y-135720000D03*
X114600000Y-133180000D03*
X112060000Y-133180000D03*
X114600000Y-130640000D03*
X112060000Y-130640000D03*
X114600000Y-128100000D03*
X112060000Y-128100000D03*
X114600000Y-125560000D03*
X112060000Y-125560000D03*
X114600000Y-123020000D03*
X112060000Y-120480000D03*
X112060000Y-123020000D03*
X109520000Y-120480000D03*
X109520000Y-123020000D03*
X106980000Y-120480000D03*
X106980000Y-123020000D03*
X104440000Y-120480000D03*
X104440000Y-123020000D03*
D14*
X170337500Y-55323000D03*
D15*
X172337500Y-55323000D03*
D20*
X44390000Y-123540000D03*
X44390000Y-125440000D03*
D14*
X68580000Y-143510000D03*
D21*
X68580000Y-140970000D03*
X68580000Y-138430000D03*
X68580000Y-135890000D03*
X68580000Y-133350000D03*
X68580000Y-130810000D03*
X68580000Y-128270000D03*
X68580000Y-125730000D03*
X68580000Y-123190000D03*
X68580000Y-120650000D03*
X68580000Y-118110000D03*
X68580000Y-115570000D03*
X68580000Y-113030000D03*
X68580000Y-110490000D03*
X68580000Y-107950000D03*
X68580000Y-105410000D03*
X68580000Y-102870000D03*
X68580000Y-100330000D03*
X68580000Y-97790000D03*
X68580000Y-95250000D03*
X53340000Y-95250000D03*
X53340000Y-97790000D03*
X53340000Y-100330000D03*
X53340000Y-102870000D03*
X53340000Y-105410000D03*
X53340000Y-107950000D03*
X53340000Y-110490000D03*
X53340000Y-113030000D03*
X53340000Y-115570000D03*
X53340000Y-118110000D03*
X53340000Y-120650000D03*
X53340000Y-123190000D03*
X53340000Y-125730000D03*
X53340000Y-128270000D03*
X53340000Y-130810000D03*
X53340000Y-133350000D03*
X53340000Y-135890000D03*
X53340000Y-138430000D03*
X53340000Y-140970000D03*
X53340000Y-143510000D03*
D22*
X34750000Y-123735000D03*
X34750000Y-148735000D03*
D14*
X35050000Y-130695000D03*
D15*
X35050000Y-133465000D03*
X35050000Y-136235000D03*
X35050000Y-139005000D03*
X35050000Y-141775000D03*
X32210000Y-132080000D03*
X32210000Y-134850000D03*
X32210000Y-137620000D03*
X32210000Y-140390000D03*
D14*
X142082600Y-53291000D03*
D21*
X144622600Y-53291000D03*
X147162600Y-53291000D03*
X149702600Y-53291000D03*
X152242600Y-53291000D03*
X154782600Y-53291000D03*
X157322600Y-53291000D03*
X159862600Y-53291000D03*
X162402600Y-53291000D03*
X164942600Y-53291000D03*
D23*
X30480000Y-70000000D03*
X30480000Y-63500000D03*
X34980000Y-70000000D03*
X34980000Y-63500000D03*
D24*
X32500000Y-79075000D03*
D25*
X32500000Y-76535000D03*
D23*
X30480000Y-57300000D03*
X30480000Y-50800000D03*
X34980000Y-57300000D03*
X34980000Y-50800000D03*
D26*
X44353000Y-48450000D03*
X67467000Y-48450000D03*
D27*
X45750000Y-67500000D03*
X48290000Y-67500000D03*
X50830000Y-67500000D03*
X53370000Y-67500000D03*
X55910000Y-67500000D03*
X58450000Y-67500000D03*
X60990000Y-67500000D03*
X63530000Y-67500000D03*
X66070000Y-67500000D03*
X70170000Y-74665000D03*
X70170000Y-77205000D03*
X70170000Y-79745000D03*
X70170000Y-82285000D03*
X70170000Y-84825000D03*
X70170000Y-87365000D03*
X43500000Y-88000000D03*
X46040000Y-88000000D03*
X48580000Y-88000000D03*
X51120000Y-88000000D03*
D22*
X34750000Y-88175000D03*
X34750000Y-113175000D03*
D14*
X35050000Y-95135000D03*
D15*
X35050000Y-97905000D03*
X35050000Y-100675000D03*
X35050000Y-103445000D03*
X35050000Y-106215000D03*
X32210000Y-96520000D03*
X32210000Y-99290000D03*
X32210000Y-102060000D03*
X32210000Y-104830000D03*
D14*
X134237500Y-55323000D03*
D15*
X132237500Y-55323000D03*
D14*
X176220000Y-142840000D03*
D15*
X168600000Y-142840000D03*
D14*
X45000000Y-38500000D03*
D15*
X45000000Y-41000000D03*
D14*
X176220000Y-135220000D03*
D15*
X176220000Y-127600000D03*
X168600000Y-127600000D03*
X168600000Y-135220000D03*
D28*
X95800000Y-81575000D03*
X95800000Y-80025000D03*
X91250000Y-101250000D03*
X91250000Y-99700000D03*
X158750000Y-47750000D03*
X158750000Y-46200000D03*
D29*
X105000000Y-65325000D03*
X105000000Y-66875000D03*
X91250000Y-93750000D03*
X91250000Y-95300000D03*
D28*
X96750000Y-101250000D03*
X96750000Y-99700000D03*
X164250000Y-47750000D03*
X164250000Y-46200000D03*
X89800000Y-73978000D03*
X89800000Y-72428000D03*
D29*
X88947500Y-65342000D03*
X88947500Y-66892000D03*
D30*
X120800000Y-93750000D03*
X119250000Y-93750000D03*
D29*
X96750000Y-93750000D03*
X96750000Y-95300000D03*
D31*
X97250000Y-66601000D03*
X98800000Y-66601000D03*
D29*
X164250000Y-40250000D03*
X164250000Y-41800000D03*
D31*
X97250000Y-81575000D03*
X98800000Y-81575000D03*
D29*
X130500000Y-40000000D03*
X130500000Y-41550000D03*
D31*
X113250000Y-93750000D03*
X114800000Y-93750000D03*
D30*
X101850000Y-68125000D03*
X100300000Y-68125000D03*
D31*
X90471500Y-65342000D03*
X92021500Y-65342000D03*
D29*
X104900000Y-80075000D03*
X104900000Y-81625000D03*
D31*
X113250000Y-88250000D03*
X114800000Y-88250000D03*
D28*
X104900000Y-78551000D03*
X104900000Y-77001000D03*
D29*
X105015500Y-69914000D03*
X105015500Y-71464000D03*
D31*
X113475000Y-71625000D03*
X115025000Y-71625000D03*
D29*
X158750000Y-40250000D03*
X158750000Y-41800000D03*
D30*
X105015500Y-68390000D03*
X103465500Y-68390000D03*
D31*
X97250000Y-80075000D03*
X98800000Y-80075000D03*
D30*
X94300000Y-80582000D03*
X92750000Y-80582000D03*
D28*
X89800000Y-77175000D03*
X89800000Y-75625000D03*
X91300000Y-82106000D03*
X91300000Y-80556000D03*
D30*
X120800000Y-88250000D03*
X119250000Y-88250000D03*
X101850000Y-66601000D03*
X100300000Y-66601000D03*
D29*
X125000000Y-40000000D03*
X125000000Y-41550000D03*
D31*
X113475000Y-77125000D03*
X115025000Y-77125000D03*
D28*
X130500000Y-47500000D03*
X130500000Y-45950000D03*
D32*
X94350000Y-82106000D03*
X92700000Y-82106000D03*
D29*
X89700000Y-78675000D03*
X89700000Y-80225000D03*
D30*
X120975000Y-77125000D03*
X119425000Y-77125000D03*
X120725000Y-71625000D03*
X119175000Y-71625000D03*
D28*
X125000000Y-47500000D03*
X125000000Y-45950000D03*
M02*
