%TF.GenerationSoftware,KiCad,Pcbnew,7.0.10*%
%TF.CreationDate,2024-03-15T17:16:10-07:00*%
%TF.ProjectId,testboard,74657374-626f-4617-9264-2e6b69636164,rev?*%
%TF.SameCoordinates,Original*%
%TF.FileFunction,Drillmap*%
%TF.FilePolarity,Positive*%
%FSLAX45Y45*%
G04 Gerber Fmt 4.5, Leading zero omitted, Abs format (unit mm)*
G04 Created by KiCad (PCBNEW 7.0.10) date 2024-03-15 17:16:10*
%MOMM*%
%LPD*%
G01*
G04 APERTURE LIST*
%ADD10C,0.100000*%
%ADD11C,0.200000*%
%ADD12C,0.250000*%
%ADD13C,0.320000*%
G04 APERTURE END LIST*
D10*
X2500000Y-15746000D02*
X2500000Y-2004000D01*
X18746000Y-16000000D02*
X2754000Y-16000000D01*
X19000000Y-2004000D02*
G75*
G03*
X18746000Y-1750000I-254000J0D01*
G01*
X18746000Y-16000000D02*
G75*
G03*
X19000000Y-15746000I0J254000D01*
G01*
X2754000Y-1750000D02*
X18746000Y-1750000D01*
X19000000Y-2004000D02*
X19000000Y-15746000D01*
X2754000Y-1750000D02*
G75*
G03*
X2500000Y-2004000I0J-254000D01*
G01*
X2500000Y-15746000D02*
G75*
G03*
X2754000Y-16000000I254000J0D01*
G01*
D11*
D12*
X4310300Y-4720000D02*
X4560300Y-4970000D01*
X4560300Y-4720000D02*
X4310300Y-4970000D01*
X6621700Y-4720000D02*
X6871700Y-4970000D01*
X6871700Y-4720000D02*
X6621700Y-4970000D01*
D13*
X3010000Y-15650000D02*
G75*
G03*
X2690000Y-15650000I-160000J0D01*
G01*
X2690000Y-15650000D02*
G75*
G03*
X3010000Y-15650000I160000J0D01*
G01*
X18810000Y-2100000D02*
G75*
G03*
X18490000Y-2100000I-160000J0D01*
G01*
X18490000Y-2100000D02*
G75*
G03*
X18810000Y-2100000I160000J0D01*
G01*
X18810000Y-15650000D02*
G75*
G03*
X18490000Y-15650000I-160000J0D01*
G01*
X18490000Y-15650000D02*
G75*
G03*
X18810000Y-15650000I160000J0D01*
G01*
D11*
X2755777Y-16316484D02*
X2755777Y-16116484D01*
X2755777Y-16116484D02*
X2803396Y-16116484D01*
X2803396Y-16116484D02*
X2831967Y-16126008D01*
X2831967Y-16126008D02*
X2851015Y-16145055D01*
X2851015Y-16145055D02*
X2860539Y-16164103D01*
X2860539Y-16164103D02*
X2870062Y-16202198D01*
X2870062Y-16202198D02*
X2870062Y-16230769D01*
X2870062Y-16230769D02*
X2860539Y-16268865D01*
X2860539Y-16268865D02*
X2851015Y-16287912D01*
X2851015Y-16287912D02*
X2831967Y-16306960D01*
X2831967Y-16306960D02*
X2803396Y-16316484D01*
X2803396Y-16316484D02*
X2755777Y-16316484D01*
X2955777Y-16316484D02*
X2955777Y-16183150D01*
X2955777Y-16221246D02*
X2965301Y-16202198D01*
X2965301Y-16202198D02*
X2974824Y-16192674D01*
X2974824Y-16192674D02*
X2993872Y-16183150D01*
X2993872Y-16183150D02*
X3012920Y-16183150D01*
X3079586Y-16316484D02*
X3079586Y-16183150D01*
X3079586Y-16116484D02*
X3070062Y-16126008D01*
X3070062Y-16126008D02*
X3079586Y-16135531D01*
X3079586Y-16135531D02*
X3089110Y-16126008D01*
X3089110Y-16126008D02*
X3079586Y-16116484D01*
X3079586Y-16116484D02*
X3079586Y-16135531D01*
X3203396Y-16316484D02*
X3184348Y-16306960D01*
X3184348Y-16306960D02*
X3174824Y-16287912D01*
X3174824Y-16287912D02*
X3174824Y-16116484D01*
X3308158Y-16316484D02*
X3289110Y-16306960D01*
X3289110Y-16306960D02*
X3279586Y-16287912D01*
X3279586Y-16287912D02*
X3279586Y-16116484D01*
X3536729Y-16316484D02*
X3536729Y-16116484D01*
X3536729Y-16116484D02*
X3603396Y-16259341D01*
X3603396Y-16259341D02*
X3670062Y-16116484D01*
X3670062Y-16116484D02*
X3670062Y-16316484D01*
X3851015Y-16316484D02*
X3851015Y-16211722D01*
X3851015Y-16211722D02*
X3841491Y-16192674D01*
X3841491Y-16192674D02*
X3822443Y-16183150D01*
X3822443Y-16183150D02*
X3784348Y-16183150D01*
X3784348Y-16183150D02*
X3765301Y-16192674D01*
X3851015Y-16306960D02*
X3831967Y-16316484D01*
X3831967Y-16316484D02*
X3784348Y-16316484D01*
X3784348Y-16316484D02*
X3765301Y-16306960D01*
X3765301Y-16306960D02*
X3755777Y-16287912D01*
X3755777Y-16287912D02*
X3755777Y-16268865D01*
X3755777Y-16268865D02*
X3765301Y-16249817D01*
X3765301Y-16249817D02*
X3784348Y-16240293D01*
X3784348Y-16240293D02*
X3831967Y-16240293D01*
X3831967Y-16240293D02*
X3851015Y-16230769D01*
X3946253Y-16183150D02*
X3946253Y-16383150D01*
X3946253Y-16192674D02*
X3965301Y-16183150D01*
X3965301Y-16183150D02*
X4003396Y-16183150D01*
X4003396Y-16183150D02*
X4022443Y-16192674D01*
X4022443Y-16192674D02*
X4031967Y-16202198D01*
X4031967Y-16202198D02*
X4041491Y-16221246D01*
X4041491Y-16221246D02*
X4041491Y-16278388D01*
X4041491Y-16278388D02*
X4031967Y-16297436D01*
X4031967Y-16297436D02*
X4022443Y-16306960D01*
X4022443Y-16306960D02*
X4003396Y-16316484D01*
X4003396Y-16316484D02*
X3965301Y-16316484D01*
X3965301Y-16316484D02*
X3946253Y-16306960D01*
X4127205Y-16297436D02*
X4136729Y-16306960D01*
X4136729Y-16306960D02*
X4127205Y-16316484D01*
X4127205Y-16316484D02*
X4117682Y-16306960D01*
X4117682Y-16306960D02*
X4127205Y-16297436D01*
X4127205Y-16297436D02*
X4127205Y-16316484D01*
X4127205Y-16192674D02*
X4136729Y-16202198D01*
X4136729Y-16202198D02*
X4127205Y-16211722D01*
X4127205Y-16211722D02*
X4117682Y-16202198D01*
X4117682Y-16202198D02*
X4127205Y-16192674D01*
X4127205Y-16192674D02*
X4127205Y-16211722D01*
X2295000Y-16545000D02*
X2495000Y-16745000D01*
X2495000Y-16545000D02*
X2295000Y-16745000D01*
X2746253Y-16555531D02*
X2755777Y-16546008D01*
X2755777Y-16546008D02*
X2774824Y-16536484D01*
X2774824Y-16536484D02*
X2822443Y-16536484D01*
X2822443Y-16536484D02*
X2841491Y-16546008D01*
X2841491Y-16546008D02*
X2851015Y-16555531D01*
X2851015Y-16555531D02*
X2860539Y-16574579D01*
X2860539Y-16574579D02*
X2860539Y-16593627D01*
X2860539Y-16593627D02*
X2851015Y-16622198D01*
X2851015Y-16622198D02*
X2736729Y-16736484D01*
X2736729Y-16736484D02*
X2860539Y-16736484D01*
X2946253Y-16717436D02*
X2955777Y-16726960D01*
X2955777Y-16726960D02*
X2946253Y-16736484D01*
X2946253Y-16736484D02*
X2936729Y-16726960D01*
X2936729Y-16726960D02*
X2946253Y-16717436D01*
X2946253Y-16717436D02*
X2946253Y-16736484D01*
X3136729Y-16536484D02*
X3041491Y-16536484D01*
X3041491Y-16536484D02*
X3031967Y-16631722D01*
X3031967Y-16631722D02*
X3041491Y-16622198D01*
X3041491Y-16622198D02*
X3060539Y-16612674D01*
X3060539Y-16612674D02*
X3108158Y-16612674D01*
X3108158Y-16612674D02*
X3127205Y-16622198D01*
X3127205Y-16622198D02*
X3136729Y-16631722D01*
X3136729Y-16631722D02*
X3146253Y-16650769D01*
X3146253Y-16650769D02*
X3146253Y-16698388D01*
X3146253Y-16698388D02*
X3136729Y-16717436D01*
X3136729Y-16717436D02*
X3127205Y-16726960D01*
X3127205Y-16726960D02*
X3108158Y-16736484D01*
X3108158Y-16736484D02*
X3060539Y-16736484D01*
X3060539Y-16736484D02*
X3041491Y-16726960D01*
X3041491Y-16726960D02*
X3031967Y-16717436D01*
X3270062Y-16536484D02*
X3289110Y-16536484D01*
X3289110Y-16536484D02*
X3308158Y-16546008D01*
X3308158Y-16546008D02*
X3317682Y-16555531D01*
X3317682Y-16555531D02*
X3327205Y-16574579D01*
X3327205Y-16574579D02*
X3336729Y-16612674D01*
X3336729Y-16612674D02*
X3336729Y-16660293D01*
X3336729Y-16660293D02*
X3327205Y-16698388D01*
X3327205Y-16698388D02*
X3317682Y-16717436D01*
X3317682Y-16717436D02*
X3308158Y-16726960D01*
X3308158Y-16726960D02*
X3289110Y-16736484D01*
X3289110Y-16736484D02*
X3270062Y-16736484D01*
X3270062Y-16736484D02*
X3251015Y-16726960D01*
X3251015Y-16726960D02*
X3241491Y-16717436D01*
X3241491Y-16717436D02*
X3231967Y-16698388D01*
X3231967Y-16698388D02*
X3222443Y-16660293D01*
X3222443Y-16660293D02*
X3222443Y-16612674D01*
X3222443Y-16612674D02*
X3231967Y-16574579D01*
X3231967Y-16574579D02*
X3241491Y-16555531D01*
X3241491Y-16555531D02*
X3251015Y-16546008D01*
X3251015Y-16546008D02*
X3270062Y-16536484D01*
X3460539Y-16536484D02*
X3479586Y-16536484D01*
X3479586Y-16536484D02*
X3498634Y-16546008D01*
X3498634Y-16546008D02*
X3508158Y-16555531D01*
X3508158Y-16555531D02*
X3517682Y-16574579D01*
X3517682Y-16574579D02*
X3527205Y-16612674D01*
X3527205Y-16612674D02*
X3527205Y-16660293D01*
X3527205Y-16660293D02*
X3517682Y-16698388D01*
X3517682Y-16698388D02*
X3508158Y-16717436D01*
X3508158Y-16717436D02*
X3498634Y-16726960D01*
X3498634Y-16726960D02*
X3479586Y-16736484D01*
X3479586Y-16736484D02*
X3460539Y-16736484D01*
X3460539Y-16736484D02*
X3441491Y-16726960D01*
X3441491Y-16726960D02*
X3431967Y-16717436D01*
X3431967Y-16717436D02*
X3422443Y-16698388D01*
X3422443Y-16698388D02*
X3412920Y-16660293D01*
X3412920Y-16660293D02*
X3412920Y-16612674D01*
X3412920Y-16612674D02*
X3422443Y-16574579D01*
X3422443Y-16574579D02*
X3431967Y-16555531D01*
X3431967Y-16555531D02*
X3441491Y-16546008D01*
X3441491Y-16546008D02*
X3460539Y-16536484D01*
X3612920Y-16736484D02*
X3612920Y-16603150D01*
X3612920Y-16622198D02*
X3622443Y-16612674D01*
X3622443Y-16612674D02*
X3641491Y-16603150D01*
X3641491Y-16603150D02*
X3670063Y-16603150D01*
X3670063Y-16603150D02*
X3689110Y-16612674D01*
X3689110Y-16612674D02*
X3698634Y-16631722D01*
X3698634Y-16631722D02*
X3698634Y-16736484D01*
X3698634Y-16631722D02*
X3708158Y-16612674D01*
X3708158Y-16612674D02*
X3727205Y-16603150D01*
X3727205Y-16603150D02*
X3755777Y-16603150D01*
X3755777Y-16603150D02*
X3774824Y-16612674D01*
X3774824Y-16612674D02*
X3784348Y-16631722D01*
X3784348Y-16631722D02*
X3784348Y-16736484D01*
X3879586Y-16736484D02*
X3879586Y-16603150D01*
X3879586Y-16622198D02*
X3889110Y-16612674D01*
X3889110Y-16612674D02*
X3908158Y-16603150D01*
X3908158Y-16603150D02*
X3936729Y-16603150D01*
X3936729Y-16603150D02*
X3955777Y-16612674D01*
X3955777Y-16612674D02*
X3965301Y-16631722D01*
X3965301Y-16631722D02*
X3965301Y-16736484D01*
X3965301Y-16631722D02*
X3974824Y-16612674D01*
X3974824Y-16612674D02*
X3993872Y-16603150D01*
X3993872Y-16603150D02*
X4022443Y-16603150D01*
X4022443Y-16603150D02*
X4041491Y-16612674D01*
X4041491Y-16612674D02*
X4051015Y-16631722D01*
X4051015Y-16631722D02*
X4051015Y-16736484D01*
X4441491Y-16526960D02*
X4270063Y-16784103D01*
X4698634Y-16536484D02*
X4717682Y-16536484D01*
X4717682Y-16536484D02*
X4736729Y-16546008D01*
X4736729Y-16546008D02*
X4746253Y-16555531D01*
X4746253Y-16555531D02*
X4755777Y-16574579D01*
X4755777Y-16574579D02*
X4765301Y-16612674D01*
X4765301Y-16612674D02*
X4765301Y-16660293D01*
X4765301Y-16660293D02*
X4755777Y-16698388D01*
X4755777Y-16698388D02*
X4746253Y-16717436D01*
X4746253Y-16717436D02*
X4736729Y-16726960D01*
X4736729Y-16726960D02*
X4717682Y-16736484D01*
X4717682Y-16736484D02*
X4698634Y-16736484D01*
X4698634Y-16736484D02*
X4679587Y-16726960D01*
X4679587Y-16726960D02*
X4670063Y-16717436D01*
X4670063Y-16717436D02*
X4660539Y-16698388D01*
X4660539Y-16698388D02*
X4651015Y-16660293D01*
X4651015Y-16660293D02*
X4651015Y-16612674D01*
X4651015Y-16612674D02*
X4660539Y-16574579D01*
X4660539Y-16574579D02*
X4670063Y-16555531D01*
X4670063Y-16555531D02*
X4679587Y-16546008D01*
X4679587Y-16546008D02*
X4698634Y-16536484D01*
X4851015Y-16717436D02*
X4860539Y-16726960D01*
X4860539Y-16726960D02*
X4851015Y-16736484D01*
X4851015Y-16736484D02*
X4841491Y-16726960D01*
X4841491Y-16726960D02*
X4851015Y-16717436D01*
X4851015Y-16717436D02*
X4851015Y-16736484D01*
X4984348Y-16536484D02*
X5003396Y-16536484D01*
X5003396Y-16536484D02*
X5022444Y-16546008D01*
X5022444Y-16546008D02*
X5031968Y-16555531D01*
X5031968Y-16555531D02*
X5041491Y-16574579D01*
X5041491Y-16574579D02*
X5051015Y-16612674D01*
X5051015Y-16612674D02*
X5051015Y-16660293D01*
X5051015Y-16660293D02*
X5041491Y-16698388D01*
X5041491Y-16698388D02*
X5031968Y-16717436D01*
X5031968Y-16717436D02*
X5022444Y-16726960D01*
X5022444Y-16726960D02*
X5003396Y-16736484D01*
X5003396Y-16736484D02*
X4984348Y-16736484D01*
X4984348Y-16736484D02*
X4965301Y-16726960D01*
X4965301Y-16726960D02*
X4955777Y-16717436D01*
X4955777Y-16717436D02*
X4946253Y-16698388D01*
X4946253Y-16698388D02*
X4936729Y-16660293D01*
X4936729Y-16660293D02*
X4936729Y-16612674D01*
X4936729Y-16612674D02*
X4946253Y-16574579D01*
X4946253Y-16574579D02*
X4955777Y-16555531D01*
X4955777Y-16555531D02*
X4965301Y-16546008D01*
X4965301Y-16546008D02*
X4984348Y-16536484D01*
X5146253Y-16736484D02*
X5184348Y-16736484D01*
X5184348Y-16736484D02*
X5203396Y-16726960D01*
X5203396Y-16726960D02*
X5212920Y-16717436D01*
X5212920Y-16717436D02*
X5231968Y-16688865D01*
X5231968Y-16688865D02*
X5241491Y-16650769D01*
X5241491Y-16650769D02*
X5241491Y-16574579D01*
X5241491Y-16574579D02*
X5231968Y-16555531D01*
X5231968Y-16555531D02*
X5222444Y-16546008D01*
X5222444Y-16546008D02*
X5203396Y-16536484D01*
X5203396Y-16536484D02*
X5165301Y-16536484D01*
X5165301Y-16536484D02*
X5146253Y-16546008D01*
X5146253Y-16546008D02*
X5136729Y-16555531D01*
X5136729Y-16555531D02*
X5127206Y-16574579D01*
X5127206Y-16574579D02*
X5127206Y-16622198D01*
X5127206Y-16622198D02*
X5136729Y-16641246D01*
X5136729Y-16641246D02*
X5146253Y-16650769D01*
X5146253Y-16650769D02*
X5165301Y-16660293D01*
X5165301Y-16660293D02*
X5203396Y-16660293D01*
X5203396Y-16660293D02*
X5222444Y-16650769D01*
X5222444Y-16650769D02*
X5231968Y-16641246D01*
X5231968Y-16641246D02*
X5241491Y-16622198D01*
X5355777Y-16622198D02*
X5336729Y-16612674D01*
X5336729Y-16612674D02*
X5327206Y-16603150D01*
X5327206Y-16603150D02*
X5317682Y-16584103D01*
X5317682Y-16584103D02*
X5317682Y-16574579D01*
X5317682Y-16574579D02*
X5327206Y-16555531D01*
X5327206Y-16555531D02*
X5336729Y-16546008D01*
X5336729Y-16546008D02*
X5355777Y-16536484D01*
X5355777Y-16536484D02*
X5393872Y-16536484D01*
X5393872Y-16536484D02*
X5412920Y-16546008D01*
X5412920Y-16546008D02*
X5422444Y-16555531D01*
X5422444Y-16555531D02*
X5431968Y-16574579D01*
X5431968Y-16574579D02*
X5431968Y-16584103D01*
X5431968Y-16584103D02*
X5422444Y-16603150D01*
X5422444Y-16603150D02*
X5412920Y-16612674D01*
X5412920Y-16612674D02*
X5393872Y-16622198D01*
X5393872Y-16622198D02*
X5355777Y-16622198D01*
X5355777Y-16622198D02*
X5336729Y-16631722D01*
X5336729Y-16631722D02*
X5327206Y-16641246D01*
X5327206Y-16641246D02*
X5317682Y-16660293D01*
X5317682Y-16660293D02*
X5317682Y-16698388D01*
X5317682Y-16698388D02*
X5327206Y-16717436D01*
X5327206Y-16717436D02*
X5336729Y-16726960D01*
X5336729Y-16726960D02*
X5355777Y-16736484D01*
X5355777Y-16736484D02*
X5393872Y-16736484D01*
X5393872Y-16736484D02*
X5412920Y-16726960D01*
X5412920Y-16726960D02*
X5422444Y-16717436D01*
X5422444Y-16717436D02*
X5431968Y-16698388D01*
X5431968Y-16698388D02*
X5431968Y-16660293D01*
X5431968Y-16660293D02*
X5422444Y-16641246D01*
X5422444Y-16641246D02*
X5412920Y-16631722D01*
X5412920Y-16631722D02*
X5393872Y-16622198D01*
X5603396Y-16603150D02*
X5603396Y-16736484D01*
X5555777Y-16526960D02*
X5508158Y-16669817D01*
X5508158Y-16669817D02*
X5631967Y-16669817D01*
X5698634Y-16536484D02*
X5698634Y-16574579D01*
X5774825Y-16536484D02*
X5774825Y-16574579D01*
X6070063Y-16812674D02*
X6060539Y-16803150D01*
X6060539Y-16803150D02*
X6041491Y-16774579D01*
X6041491Y-16774579D02*
X6031968Y-16755531D01*
X6031968Y-16755531D02*
X6022444Y-16726960D01*
X6022444Y-16726960D02*
X6012920Y-16679341D01*
X6012920Y-16679341D02*
X6012920Y-16641246D01*
X6012920Y-16641246D02*
X6022444Y-16593627D01*
X6022444Y-16593627D02*
X6031968Y-16565055D01*
X6031968Y-16565055D02*
X6041491Y-16546008D01*
X6041491Y-16546008D02*
X6060539Y-16517436D01*
X6060539Y-16517436D02*
X6070063Y-16507912D01*
X6136729Y-16555531D02*
X6146253Y-16546008D01*
X6146253Y-16546008D02*
X6165301Y-16536484D01*
X6165301Y-16536484D02*
X6212920Y-16536484D01*
X6212920Y-16536484D02*
X6231968Y-16546008D01*
X6231968Y-16546008D02*
X6241491Y-16555531D01*
X6241491Y-16555531D02*
X6251015Y-16574579D01*
X6251015Y-16574579D02*
X6251015Y-16593627D01*
X6251015Y-16593627D02*
X6241491Y-16622198D01*
X6241491Y-16622198D02*
X6127206Y-16736484D01*
X6127206Y-16736484D02*
X6251015Y-16736484D01*
X6489110Y-16736484D02*
X6489110Y-16536484D01*
X6574825Y-16736484D02*
X6574825Y-16631722D01*
X6574825Y-16631722D02*
X6565301Y-16612674D01*
X6565301Y-16612674D02*
X6546253Y-16603150D01*
X6546253Y-16603150D02*
X6517682Y-16603150D01*
X6517682Y-16603150D02*
X6498634Y-16612674D01*
X6498634Y-16612674D02*
X6489110Y-16622198D01*
X6698634Y-16736484D02*
X6679587Y-16726960D01*
X6679587Y-16726960D02*
X6670063Y-16717436D01*
X6670063Y-16717436D02*
X6660539Y-16698388D01*
X6660539Y-16698388D02*
X6660539Y-16641246D01*
X6660539Y-16641246D02*
X6670063Y-16622198D01*
X6670063Y-16622198D02*
X6679587Y-16612674D01*
X6679587Y-16612674D02*
X6698634Y-16603150D01*
X6698634Y-16603150D02*
X6727206Y-16603150D01*
X6727206Y-16603150D02*
X6746253Y-16612674D01*
X6746253Y-16612674D02*
X6755777Y-16622198D01*
X6755777Y-16622198D02*
X6765301Y-16641246D01*
X6765301Y-16641246D02*
X6765301Y-16698388D01*
X6765301Y-16698388D02*
X6755777Y-16717436D01*
X6755777Y-16717436D02*
X6746253Y-16726960D01*
X6746253Y-16726960D02*
X6727206Y-16736484D01*
X6727206Y-16736484D02*
X6698634Y-16736484D01*
X6879587Y-16736484D02*
X6860539Y-16726960D01*
X6860539Y-16726960D02*
X6851015Y-16707912D01*
X6851015Y-16707912D02*
X6851015Y-16536484D01*
X7031968Y-16726960D02*
X7012920Y-16736484D01*
X7012920Y-16736484D02*
X6974825Y-16736484D01*
X6974825Y-16736484D02*
X6955777Y-16726960D01*
X6955777Y-16726960D02*
X6946253Y-16707912D01*
X6946253Y-16707912D02*
X6946253Y-16631722D01*
X6946253Y-16631722D02*
X6955777Y-16612674D01*
X6955777Y-16612674D02*
X6974825Y-16603150D01*
X6974825Y-16603150D02*
X7012920Y-16603150D01*
X7012920Y-16603150D02*
X7031968Y-16612674D01*
X7031968Y-16612674D02*
X7041491Y-16631722D01*
X7041491Y-16631722D02*
X7041491Y-16650769D01*
X7041491Y-16650769D02*
X6946253Y-16669817D01*
X7117682Y-16726960D02*
X7136730Y-16736484D01*
X7136730Y-16736484D02*
X7174825Y-16736484D01*
X7174825Y-16736484D02*
X7193872Y-16726960D01*
X7193872Y-16726960D02*
X7203396Y-16707912D01*
X7203396Y-16707912D02*
X7203396Y-16698388D01*
X7203396Y-16698388D02*
X7193872Y-16679341D01*
X7193872Y-16679341D02*
X7174825Y-16669817D01*
X7174825Y-16669817D02*
X7146253Y-16669817D01*
X7146253Y-16669817D02*
X7127206Y-16660293D01*
X7127206Y-16660293D02*
X7117682Y-16641246D01*
X7117682Y-16641246D02*
X7117682Y-16631722D01*
X7117682Y-16631722D02*
X7127206Y-16612674D01*
X7127206Y-16612674D02*
X7146253Y-16603150D01*
X7146253Y-16603150D02*
X7174825Y-16603150D01*
X7174825Y-16603150D02*
X7193872Y-16612674D01*
X7270063Y-16812674D02*
X7279587Y-16803150D01*
X7279587Y-16803150D02*
X7298634Y-16774579D01*
X7298634Y-16774579D02*
X7308158Y-16755531D01*
X7308158Y-16755531D02*
X7317682Y-16726960D01*
X7317682Y-16726960D02*
X7327206Y-16679341D01*
X7327206Y-16679341D02*
X7327206Y-16641246D01*
X7327206Y-16641246D02*
X7317682Y-16593627D01*
X7317682Y-16593627D02*
X7308158Y-16565055D01*
X7308158Y-16565055D02*
X7298634Y-16546008D01*
X7298634Y-16546008D02*
X7279587Y-16517436D01*
X7279587Y-16517436D02*
X7270063Y-16507912D01*
X7631968Y-16812674D02*
X7622444Y-16803150D01*
X7622444Y-16803150D02*
X7603396Y-16774579D01*
X7603396Y-16774579D02*
X7593872Y-16755531D01*
X7593872Y-16755531D02*
X7584349Y-16726960D01*
X7584349Y-16726960D02*
X7574825Y-16679341D01*
X7574825Y-16679341D02*
X7574825Y-16641246D01*
X7574825Y-16641246D02*
X7584349Y-16593627D01*
X7584349Y-16593627D02*
X7593872Y-16565055D01*
X7593872Y-16565055D02*
X7603396Y-16546008D01*
X7603396Y-16546008D02*
X7622444Y-16517436D01*
X7622444Y-16517436D02*
X7631968Y-16507912D01*
X7708158Y-16603150D02*
X7708158Y-16736484D01*
X7708158Y-16622198D02*
X7717682Y-16612674D01*
X7717682Y-16612674D02*
X7736730Y-16603150D01*
X7736730Y-16603150D02*
X7765301Y-16603150D01*
X7765301Y-16603150D02*
X7784349Y-16612674D01*
X7784349Y-16612674D02*
X7793872Y-16631722D01*
X7793872Y-16631722D02*
X7793872Y-16736484D01*
X7917682Y-16736484D02*
X7898634Y-16726960D01*
X7898634Y-16726960D02*
X7889111Y-16717436D01*
X7889111Y-16717436D02*
X7879587Y-16698388D01*
X7879587Y-16698388D02*
X7879587Y-16641246D01*
X7879587Y-16641246D02*
X7889111Y-16622198D01*
X7889111Y-16622198D02*
X7898634Y-16612674D01*
X7898634Y-16612674D02*
X7917682Y-16603150D01*
X7917682Y-16603150D02*
X7946253Y-16603150D01*
X7946253Y-16603150D02*
X7965301Y-16612674D01*
X7965301Y-16612674D02*
X7974825Y-16622198D01*
X7974825Y-16622198D02*
X7984349Y-16641246D01*
X7984349Y-16641246D02*
X7984349Y-16698388D01*
X7984349Y-16698388D02*
X7974825Y-16717436D01*
X7974825Y-16717436D02*
X7965301Y-16726960D01*
X7965301Y-16726960D02*
X7946253Y-16736484D01*
X7946253Y-16736484D02*
X7917682Y-16736484D01*
X8041492Y-16603150D02*
X8117682Y-16603150D01*
X8070063Y-16536484D02*
X8070063Y-16707912D01*
X8070063Y-16707912D02*
X8079587Y-16726960D01*
X8079587Y-16726960D02*
X8098634Y-16736484D01*
X8098634Y-16736484D02*
X8117682Y-16736484D01*
X8336730Y-16603150D02*
X8336730Y-16803150D01*
X8336730Y-16612674D02*
X8355777Y-16603150D01*
X8355777Y-16603150D02*
X8393873Y-16603150D01*
X8393873Y-16603150D02*
X8412920Y-16612674D01*
X8412920Y-16612674D02*
X8422444Y-16622198D01*
X8422444Y-16622198D02*
X8431968Y-16641246D01*
X8431968Y-16641246D02*
X8431968Y-16698388D01*
X8431968Y-16698388D02*
X8422444Y-16717436D01*
X8422444Y-16717436D02*
X8412920Y-16726960D01*
X8412920Y-16726960D02*
X8393873Y-16736484D01*
X8393873Y-16736484D02*
X8355777Y-16736484D01*
X8355777Y-16736484D02*
X8336730Y-16726960D01*
X8546254Y-16736484D02*
X8527206Y-16726960D01*
X8527206Y-16726960D02*
X8517682Y-16707912D01*
X8517682Y-16707912D02*
X8517682Y-16536484D01*
X8708158Y-16736484D02*
X8708158Y-16631722D01*
X8708158Y-16631722D02*
X8698635Y-16612674D01*
X8698635Y-16612674D02*
X8679587Y-16603150D01*
X8679587Y-16603150D02*
X8641492Y-16603150D01*
X8641492Y-16603150D02*
X8622444Y-16612674D01*
X8708158Y-16726960D02*
X8689111Y-16736484D01*
X8689111Y-16736484D02*
X8641492Y-16736484D01*
X8641492Y-16736484D02*
X8622444Y-16726960D01*
X8622444Y-16726960D02*
X8612920Y-16707912D01*
X8612920Y-16707912D02*
X8612920Y-16688865D01*
X8612920Y-16688865D02*
X8622444Y-16669817D01*
X8622444Y-16669817D02*
X8641492Y-16660293D01*
X8641492Y-16660293D02*
X8689111Y-16660293D01*
X8689111Y-16660293D02*
X8708158Y-16650769D01*
X8774825Y-16603150D02*
X8851015Y-16603150D01*
X8803396Y-16536484D02*
X8803396Y-16707912D01*
X8803396Y-16707912D02*
X8812920Y-16726960D01*
X8812920Y-16726960D02*
X8831968Y-16736484D01*
X8831968Y-16736484D02*
X8851015Y-16736484D01*
X8993873Y-16726960D02*
X8974825Y-16736484D01*
X8974825Y-16736484D02*
X8936730Y-16736484D01*
X8936730Y-16736484D02*
X8917682Y-16726960D01*
X8917682Y-16726960D02*
X8908158Y-16707912D01*
X8908158Y-16707912D02*
X8908158Y-16631722D01*
X8908158Y-16631722D02*
X8917682Y-16612674D01*
X8917682Y-16612674D02*
X8936730Y-16603150D01*
X8936730Y-16603150D02*
X8974825Y-16603150D01*
X8974825Y-16603150D02*
X8993873Y-16612674D01*
X8993873Y-16612674D02*
X9003396Y-16631722D01*
X9003396Y-16631722D02*
X9003396Y-16650769D01*
X9003396Y-16650769D02*
X8908158Y-16669817D01*
X9174825Y-16736484D02*
X9174825Y-16536484D01*
X9174825Y-16726960D02*
X9155777Y-16736484D01*
X9155777Y-16736484D02*
X9117682Y-16736484D01*
X9117682Y-16736484D02*
X9098635Y-16726960D01*
X9098635Y-16726960D02*
X9089111Y-16717436D01*
X9089111Y-16717436D02*
X9079587Y-16698388D01*
X9079587Y-16698388D02*
X9079587Y-16641246D01*
X9079587Y-16641246D02*
X9089111Y-16622198D01*
X9089111Y-16622198D02*
X9098635Y-16612674D01*
X9098635Y-16612674D02*
X9117682Y-16603150D01*
X9117682Y-16603150D02*
X9155777Y-16603150D01*
X9155777Y-16603150D02*
X9174825Y-16612674D01*
X9251016Y-16812674D02*
X9260539Y-16803150D01*
X9260539Y-16803150D02*
X9279587Y-16774579D01*
X9279587Y-16774579D02*
X9289111Y-16755531D01*
X9289111Y-16755531D02*
X9298635Y-16726960D01*
X9298635Y-16726960D02*
X9308158Y-16679341D01*
X9308158Y-16679341D02*
X9308158Y-16641246D01*
X9308158Y-16641246D02*
X9298635Y-16593627D01*
X9298635Y-16593627D02*
X9289111Y-16565055D01*
X9289111Y-16565055D02*
X9279587Y-16546008D01*
X9279587Y-16546008D02*
X9260539Y-16517436D01*
X9260539Y-16517436D02*
X9251016Y-16507912D01*
X2495000Y-16965000D02*
G75*
G03*
X2295000Y-16965000I-100000J0D01*
G01*
X2295000Y-16965000D02*
G75*
G03*
X2495000Y-16965000I100000J0D01*
G01*
X2736729Y-16856484D02*
X2860539Y-16856484D01*
X2860539Y-16856484D02*
X2793872Y-16932674D01*
X2793872Y-16932674D02*
X2822443Y-16932674D01*
X2822443Y-16932674D02*
X2841491Y-16942198D01*
X2841491Y-16942198D02*
X2851015Y-16951722D01*
X2851015Y-16951722D02*
X2860539Y-16970770D01*
X2860539Y-16970770D02*
X2860539Y-17018389D01*
X2860539Y-17018389D02*
X2851015Y-17037436D01*
X2851015Y-17037436D02*
X2841491Y-17046960D01*
X2841491Y-17046960D02*
X2822443Y-17056484D01*
X2822443Y-17056484D02*
X2765301Y-17056484D01*
X2765301Y-17056484D02*
X2746253Y-17046960D01*
X2746253Y-17046960D02*
X2736729Y-17037436D01*
X2946253Y-17037436D02*
X2955777Y-17046960D01*
X2955777Y-17046960D02*
X2946253Y-17056484D01*
X2946253Y-17056484D02*
X2936729Y-17046960D01*
X2936729Y-17046960D02*
X2946253Y-17037436D01*
X2946253Y-17037436D02*
X2946253Y-17056484D01*
X3031967Y-16875531D02*
X3041491Y-16866008D01*
X3041491Y-16866008D02*
X3060539Y-16856484D01*
X3060539Y-16856484D02*
X3108158Y-16856484D01*
X3108158Y-16856484D02*
X3127205Y-16866008D01*
X3127205Y-16866008D02*
X3136729Y-16875531D01*
X3136729Y-16875531D02*
X3146253Y-16894579D01*
X3146253Y-16894579D02*
X3146253Y-16913627D01*
X3146253Y-16913627D02*
X3136729Y-16942198D01*
X3136729Y-16942198D02*
X3022443Y-17056484D01*
X3022443Y-17056484D02*
X3146253Y-17056484D01*
X3270062Y-16856484D02*
X3289110Y-16856484D01*
X3289110Y-16856484D02*
X3308158Y-16866008D01*
X3308158Y-16866008D02*
X3317682Y-16875531D01*
X3317682Y-16875531D02*
X3327205Y-16894579D01*
X3327205Y-16894579D02*
X3336729Y-16932674D01*
X3336729Y-16932674D02*
X3336729Y-16980293D01*
X3336729Y-16980293D02*
X3327205Y-17018389D01*
X3327205Y-17018389D02*
X3317682Y-17037436D01*
X3317682Y-17037436D02*
X3308158Y-17046960D01*
X3308158Y-17046960D02*
X3289110Y-17056484D01*
X3289110Y-17056484D02*
X3270062Y-17056484D01*
X3270062Y-17056484D02*
X3251015Y-17046960D01*
X3251015Y-17046960D02*
X3241491Y-17037436D01*
X3241491Y-17037436D02*
X3231967Y-17018389D01*
X3231967Y-17018389D02*
X3222443Y-16980293D01*
X3222443Y-16980293D02*
X3222443Y-16932674D01*
X3222443Y-16932674D02*
X3231967Y-16894579D01*
X3231967Y-16894579D02*
X3241491Y-16875531D01*
X3241491Y-16875531D02*
X3251015Y-16866008D01*
X3251015Y-16866008D02*
X3270062Y-16856484D01*
X3460539Y-16856484D02*
X3479586Y-16856484D01*
X3479586Y-16856484D02*
X3498634Y-16866008D01*
X3498634Y-16866008D02*
X3508158Y-16875531D01*
X3508158Y-16875531D02*
X3517682Y-16894579D01*
X3517682Y-16894579D02*
X3527205Y-16932674D01*
X3527205Y-16932674D02*
X3527205Y-16980293D01*
X3527205Y-16980293D02*
X3517682Y-17018389D01*
X3517682Y-17018389D02*
X3508158Y-17037436D01*
X3508158Y-17037436D02*
X3498634Y-17046960D01*
X3498634Y-17046960D02*
X3479586Y-17056484D01*
X3479586Y-17056484D02*
X3460539Y-17056484D01*
X3460539Y-17056484D02*
X3441491Y-17046960D01*
X3441491Y-17046960D02*
X3431967Y-17037436D01*
X3431967Y-17037436D02*
X3422443Y-17018389D01*
X3422443Y-17018389D02*
X3412920Y-16980293D01*
X3412920Y-16980293D02*
X3412920Y-16932674D01*
X3412920Y-16932674D02*
X3422443Y-16894579D01*
X3422443Y-16894579D02*
X3431967Y-16875531D01*
X3431967Y-16875531D02*
X3441491Y-16866008D01*
X3441491Y-16866008D02*
X3460539Y-16856484D01*
X3612920Y-17056484D02*
X3612920Y-16923150D01*
X3612920Y-16942198D02*
X3622443Y-16932674D01*
X3622443Y-16932674D02*
X3641491Y-16923150D01*
X3641491Y-16923150D02*
X3670063Y-16923150D01*
X3670063Y-16923150D02*
X3689110Y-16932674D01*
X3689110Y-16932674D02*
X3698634Y-16951722D01*
X3698634Y-16951722D02*
X3698634Y-17056484D01*
X3698634Y-16951722D02*
X3708158Y-16932674D01*
X3708158Y-16932674D02*
X3727205Y-16923150D01*
X3727205Y-16923150D02*
X3755777Y-16923150D01*
X3755777Y-16923150D02*
X3774824Y-16932674D01*
X3774824Y-16932674D02*
X3784348Y-16951722D01*
X3784348Y-16951722D02*
X3784348Y-17056484D01*
X3879586Y-17056484D02*
X3879586Y-16923150D01*
X3879586Y-16942198D02*
X3889110Y-16932674D01*
X3889110Y-16932674D02*
X3908158Y-16923150D01*
X3908158Y-16923150D02*
X3936729Y-16923150D01*
X3936729Y-16923150D02*
X3955777Y-16932674D01*
X3955777Y-16932674D02*
X3965301Y-16951722D01*
X3965301Y-16951722D02*
X3965301Y-17056484D01*
X3965301Y-16951722D02*
X3974824Y-16932674D01*
X3974824Y-16932674D02*
X3993872Y-16923150D01*
X3993872Y-16923150D02*
X4022443Y-16923150D01*
X4022443Y-16923150D02*
X4041491Y-16932674D01*
X4041491Y-16932674D02*
X4051015Y-16951722D01*
X4051015Y-16951722D02*
X4051015Y-17056484D01*
X4441491Y-16846960D02*
X4270063Y-17104103D01*
X4698634Y-16856484D02*
X4717682Y-16856484D01*
X4717682Y-16856484D02*
X4736729Y-16866008D01*
X4736729Y-16866008D02*
X4746253Y-16875531D01*
X4746253Y-16875531D02*
X4755777Y-16894579D01*
X4755777Y-16894579D02*
X4765301Y-16932674D01*
X4765301Y-16932674D02*
X4765301Y-16980293D01*
X4765301Y-16980293D02*
X4755777Y-17018389D01*
X4755777Y-17018389D02*
X4746253Y-17037436D01*
X4746253Y-17037436D02*
X4736729Y-17046960D01*
X4736729Y-17046960D02*
X4717682Y-17056484D01*
X4717682Y-17056484D02*
X4698634Y-17056484D01*
X4698634Y-17056484D02*
X4679587Y-17046960D01*
X4679587Y-17046960D02*
X4670063Y-17037436D01*
X4670063Y-17037436D02*
X4660539Y-17018389D01*
X4660539Y-17018389D02*
X4651015Y-16980293D01*
X4651015Y-16980293D02*
X4651015Y-16932674D01*
X4651015Y-16932674D02*
X4660539Y-16894579D01*
X4660539Y-16894579D02*
X4670063Y-16875531D01*
X4670063Y-16875531D02*
X4679587Y-16866008D01*
X4679587Y-16866008D02*
X4698634Y-16856484D01*
X4851015Y-17037436D02*
X4860539Y-17046960D01*
X4860539Y-17046960D02*
X4851015Y-17056484D01*
X4851015Y-17056484D02*
X4841491Y-17046960D01*
X4841491Y-17046960D02*
X4851015Y-17037436D01*
X4851015Y-17037436D02*
X4851015Y-17056484D01*
X5051015Y-17056484D02*
X4936729Y-17056484D01*
X4993872Y-17056484D02*
X4993872Y-16856484D01*
X4993872Y-16856484D02*
X4974825Y-16885055D01*
X4974825Y-16885055D02*
X4955777Y-16904103D01*
X4955777Y-16904103D02*
X4936729Y-16913627D01*
X5127206Y-16875531D02*
X5136729Y-16866008D01*
X5136729Y-16866008D02*
X5155777Y-16856484D01*
X5155777Y-16856484D02*
X5203396Y-16856484D01*
X5203396Y-16856484D02*
X5222444Y-16866008D01*
X5222444Y-16866008D02*
X5231968Y-16875531D01*
X5231968Y-16875531D02*
X5241491Y-16894579D01*
X5241491Y-16894579D02*
X5241491Y-16913627D01*
X5241491Y-16913627D02*
X5231968Y-16942198D01*
X5231968Y-16942198D02*
X5117682Y-17056484D01*
X5117682Y-17056484D02*
X5241491Y-17056484D01*
X5412920Y-16856484D02*
X5374825Y-16856484D01*
X5374825Y-16856484D02*
X5355777Y-16866008D01*
X5355777Y-16866008D02*
X5346253Y-16875531D01*
X5346253Y-16875531D02*
X5327206Y-16904103D01*
X5327206Y-16904103D02*
X5317682Y-16942198D01*
X5317682Y-16942198D02*
X5317682Y-17018389D01*
X5317682Y-17018389D02*
X5327206Y-17037436D01*
X5327206Y-17037436D02*
X5336729Y-17046960D01*
X5336729Y-17046960D02*
X5355777Y-17056484D01*
X5355777Y-17056484D02*
X5393872Y-17056484D01*
X5393872Y-17056484D02*
X5412920Y-17046960D01*
X5412920Y-17046960D02*
X5422444Y-17037436D01*
X5422444Y-17037436D02*
X5431968Y-17018389D01*
X5431968Y-17018389D02*
X5431968Y-16970770D01*
X5431968Y-16970770D02*
X5422444Y-16951722D01*
X5422444Y-16951722D02*
X5412920Y-16942198D01*
X5412920Y-16942198D02*
X5393872Y-16932674D01*
X5393872Y-16932674D02*
X5355777Y-16932674D01*
X5355777Y-16932674D02*
X5336729Y-16942198D01*
X5336729Y-16942198D02*
X5327206Y-16951722D01*
X5327206Y-16951722D02*
X5317682Y-16970770D01*
X5555777Y-16856484D02*
X5574825Y-16856484D01*
X5574825Y-16856484D02*
X5593872Y-16866008D01*
X5593872Y-16866008D02*
X5603396Y-16875531D01*
X5603396Y-16875531D02*
X5612920Y-16894579D01*
X5612920Y-16894579D02*
X5622444Y-16932674D01*
X5622444Y-16932674D02*
X5622444Y-16980293D01*
X5622444Y-16980293D02*
X5612920Y-17018389D01*
X5612920Y-17018389D02*
X5603396Y-17037436D01*
X5603396Y-17037436D02*
X5593872Y-17046960D01*
X5593872Y-17046960D02*
X5574825Y-17056484D01*
X5574825Y-17056484D02*
X5555777Y-17056484D01*
X5555777Y-17056484D02*
X5536729Y-17046960D01*
X5536729Y-17046960D02*
X5527206Y-17037436D01*
X5527206Y-17037436D02*
X5517682Y-17018389D01*
X5517682Y-17018389D02*
X5508158Y-16980293D01*
X5508158Y-16980293D02*
X5508158Y-16932674D01*
X5508158Y-16932674D02*
X5517682Y-16894579D01*
X5517682Y-16894579D02*
X5527206Y-16875531D01*
X5527206Y-16875531D02*
X5536729Y-16866008D01*
X5536729Y-16866008D02*
X5555777Y-16856484D01*
X5698634Y-16856484D02*
X5698634Y-16894579D01*
X5774825Y-16856484D02*
X5774825Y-16894579D01*
X6070063Y-17132674D02*
X6060539Y-17123150D01*
X6060539Y-17123150D02*
X6041491Y-17094579D01*
X6041491Y-17094579D02*
X6031968Y-17075531D01*
X6031968Y-17075531D02*
X6022444Y-17046960D01*
X6022444Y-17046960D02*
X6012920Y-16999341D01*
X6012920Y-16999341D02*
X6012920Y-16961246D01*
X6012920Y-16961246D02*
X6022444Y-16913627D01*
X6022444Y-16913627D02*
X6031968Y-16885055D01*
X6031968Y-16885055D02*
X6041491Y-16866008D01*
X6041491Y-16866008D02*
X6060539Y-16837436D01*
X6060539Y-16837436D02*
X6070063Y-16827912D01*
X6127206Y-16856484D02*
X6251015Y-16856484D01*
X6251015Y-16856484D02*
X6184348Y-16932674D01*
X6184348Y-16932674D02*
X6212920Y-16932674D01*
X6212920Y-16932674D02*
X6231968Y-16942198D01*
X6231968Y-16942198D02*
X6241491Y-16951722D01*
X6241491Y-16951722D02*
X6251015Y-16970770D01*
X6251015Y-16970770D02*
X6251015Y-17018389D01*
X6251015Y-17018389D02*
X6241491Y-17037436D01*
X6241491Y-17037436D02*
X6231968Y-17046960D01*
X6231968Y-17046960D02*
X6212920Y-17056484D01*
X6212920Y-17056484D02*
X6155777Y-17056484D01*
X6155777Y-17056484D02*
X6136729Y-17046960D01*
X6136729Y-17046960D02*
X6127206Y-17037436D01*
X6489110Y-17056484D02*
X6489110Y-16856484D01*
X6574825Y-17056484D02*
X6574825Y-16951722D01*
X6574825Y-16951722D02*
X6565301Y-16932674D01*
X6565301Y-16932674D02*
X6546253Y-16923150D01*
X6546253Y-16923150D02*
X6517682Y-16923150D01*
X6517682Y-16923150D02*
X6498634Y-16932674D01*
X6498634Y-16932674D02*
X6489110Y-16942198D01*
X6698634Y-17056484D02*
X6679587Y-17046960D01*
X6679587Y-17046960D02*
X6670063Y-17037436D01*
X6670063Y-17037436D02*
X6660539Y-17018389D01*
X6660539Y-17018389D02*
X6660539Y-16961246D01*
X6660539Y-16961246D02*
X6670063Y-16942198D01*
X6670063Y-16942198D02*
X6679587Y-16932674D01*
X6679587Y-16932674D02*
X6698634Y-16923150D01*
X6698634Y-16923150D02*
X6727206Y-16923150D01*
X6727206Y-16923150D02*
X6746253Y-16932674D01*
X6746253Y-16932674D02*
X6755777Y-16942198D01*
X6755777Y-16942198D02*
X6765301Y-16961246D01*
X6765301Y-16961246D02*
X6765301Y-17018389D01*
X6765301Y-17018389D02*
X6755777Y-17037436D01*
X6755777Y-17037436D02*
X6746253Y-17046960D01*
X6746253Y-17046960D02*
X6727206Y-17056484D01*
X6727206Y-17056484D02*
X6698634Y-17056484D01*
X6879587Y-17056484D02*
X6860539Y-17046960D01*
X6860539Y-17046960D02*
X6851015Y-17027912D01*
X6851015Y-17027912D02*
X6851015Y-16856484D01*
X7031968Y-17046960D02*
X7012920Y-17056484D01*
X7012920Y-17056484D02*
X6974825Y-17056484D01*
X6974825Y-17056484D02*
X6955777Y-17046960D01*
X6955777Y-17046960D02*
X6946253Y-17027912D01*
X6946253Y-17027912D02*
X6946253Y-16951722D01*
X6946253Y-16951722D02*
X6955777Y-16932674D01*
X6955777Y-16932674D02*
X6974825Y-16923150D01*
X6974825Y-16923150D02*
X7012920Y-16923150D01*
X7012920Y-16923150D02*
X7031968Y-16932674D01*
X7031968Y-16932674D02*
X7041491Y-16951722D01*
X7041491Y-16951722D02*
X7041491Y-16970770D01*
X7041491Y-16970770D02*
X6946253Y-16989817D01*
X7117682Y-17046960D02*
X7136730Y-17056484D01*
X7136730Y-17056484D02*
X7174825Y-17056484D01*
X7174825Y-17056484D02*
X7193872Y-17046960D01*
X7193872Y-17046960D02*
X7203396Y-17027912D01*
X7203396Y-17027912D02*
X7203396Y-17018389D01*
X7203396Y-17018389D02*
X7193872Y-16999341D01*
X7193872Y-16999341D02*
X7174825Y-16989817D01*
X7174825Y-16989817D02*
X7146253Y-16989817D01*
X7146253Y-16989817D02*
X7127206Y-16980293D01*
X7127206Y-16980293D02*
X7117682Y-16961246D01*
X7117682Y-16961246D02*
X7117682Y-16951722D01*
X7117682Y-16951722D02*
X7127206Y-16932674D01*
X7127206Y-16932674D02*
X7146253Y-16923150D01*
X7146253Y-16923150D02*
X7174825Y-16923150D01*
X7174825Y-16923150D02*
X7193872Y-16932674D01*
X7270063Y-17132674D02*
X7279587Y-17123150D01*
X7279587Y-17123150D02*
X7298634Y-17094579D01*
X7298634Y-17094579D02*
X7308158Y-17075531D01*
X7308158Y-17075531D02*
X7317682Y-17046960D01*
X7317682Y-17046960D02*
X7327206Y-16999341D01*
X7327206Y-16999341D02*
X7327206Y-16961246D01*
X7327206Y-16961246D02*
X7317682Y-16913627D01*
X7317682Y-16913627D02*
X7308158Y-16885055D01*
X7308158Y-16885055D02*
X7298634Y-16866008D01*
X7298634Y-16866008D02*
X7279587Y-16837436D01*
X7279587Y-16837436D02*
X7270063Y-16827912D01*
X7631968Y-17132674D02*
X7622444Y-17123150D01*
X7622444Y-17123150D02*
X7603396Y-17094579D01*
X7603396Y-17094579D02*
X7593872Y-17075531D01*
X7593872Y-17075531D02*
X7584349Y-17046960D01*
X7584349Y-17046960D02*
X7574825Y-16999341D01*
X7574825Y-16999341D02*
X7574825Y-16961246D01*
X7574825Y-16961246D02*
X7584349Y-16913627D01*
X7584349Y-16913627D02*
X7593872Y-16885055D01*
X7593872Y-16885055D02*
X7603396Y-16866008D01*
X7603396Y-16866008D02*
X7622444Y-16837436D01*
X7622444Y-16837436D02*
X7631968Y-16827912D01*
X7708158Y-16923150D02*
X7708158Y-17056484D01*
X7708158Y-16942198D02*
X7717682Y-16932674D01*
X7717682Y-16932674D02*
X7736730Y-16923150D01*
X7736730Y-16923150D02*
X7765301Y-16923150D01*
X7765301Y-16923150D02*
X7784349Y-16932674D01*
X7784349Y-16932674D02*
X7793872Y-16951722D01*
X7793872Y-16951722D02*
X7793872Y-17056484D01*
X7917682Y-17056484D02*
X7898634Y-17046960D01*
X7898634Y-17046960D02*
X7889111Y-17037436D01*
X7889111Y-17037436D02*
X7879587Y-17018389D01*
X7879587Y-17018389D02*
X7879587Y-16961246D01*
X7879587Y-16961246D02*
X7889111Y-16942198D01*
X7889111Y-16942198D02*
X7898634Y-16932674D01*
X7898634Y-16932674D02*
X7917682Y-16923150D01*
X7917682Y-16923150D02*
X7946253Y-16923150D01*
X7946253Y-16923150D02*
X7965301Y-16932674D01*
X7965301Y-16932674D02*
X7974825Y-16942198D01*
X7974825Y-16942198D02*
X7984349Y-16961246D01*
X7984349Y-16961246D02*
X7984349Y-17018389D01*
X7984349Y-17018389D02*
X7974825Y-17037436D01*
X7974825Y-17037436D02*
X7965301Y-17046960D01*
X7965301Y-17046960D02*
X7946253Y-17056484D01*
X7946253Y-17056484D02*
X7917682Y-17056484D01*
X8041492Y-16923150D02*
X8117682Y-16923150D01*
X8070063Y-16856484D02*
X8070063Y-17027912D01*
X8070063Y-17027912D02*
X8079587Y-17046960D01*
X8079587Y-17046960D02*
X8098634Y-17056484D01*
X8098634Y-17056484D02*
X8117682Y-17056484D01*
X8336730Y-16923150D02*
X8336730Y-17123150D01*
X8336730Y-16932674D02*
X8355777Y-16923150D01*
X8355777Y-16923150D02*
X8393873Y-16923150D01*
X8393873Y-16923150D02*
X8412920Y-16932674D01*
X8412920Y-16932674D02*
X8422444Y-16942198D01*
X8422444Y-16942198D02*
X8431968Y-16961246D01*
X8431968Y-16961246D02*
X8431968Y-17018389D01*
X8431968Y-17018389D02*
X8422444Y-17037436D01*
X8422444Y-17037436D02*
X8412920Y-17046960D01*
X8412920Y-17046960D02*
X8393873Y-17056484D01*
X8393873Y-17056484D02*
X8355777Y-17056484D01*
X8355777Y-17056484D02*
X8336730Y-17046960D01*
X8546254Y-17056484D02*
X8527206Y-17046960D01*
X8527206Y-17046960D02*
X8517682Y-17027912D01*
X8517682Y-17027912D02*
X8517682Y-16856484D01*
X8708158Y-17056484D02*
X8708158Y-16951722D01*
X8708158Y-16951722D02*
X8698635Y-16932674D01*
X8698635Y-16932674D02*
X8679587Y-16923150D01*
X8679587Y-16923150D02*
X8641492Y-16923150D01*
X8641492Y-16923150D02*
X8622444Y-16932674D01*
X8708158Y-17046960D02*
X8689111Y-17056484D01*
X8689111Y-17056484D02*
X8641492Y-17056484D01*
X8641492Y-17056484D02*
X8622444Y-17046960D01*
X8622444Y-17046960D02*
X8612920Y-17027912D01*
X8612920Y-17027912D02*
X8612920Y-17008865D01*
X8612920Y-17008865D02*
X8622444Y-16989817D01*
X8622444Y-16989817D02*
X8641492Y-16980293D01*
X8641492Y-16980293D02*
X8689111Y-16980293D01*
X8689111Y-16980293D02*
X8708158Y-16970770D01*
X8774825Y-16923150D02*
X8851015Y-16923150D01*
X8803396Y-16856484D02*
X8803396Y-17027912D01*
X8803396Y-17027912D02*
X8812920Y-17046960D01*
X8812920Y-17046960D02*
X8831968Y-17056484D01*
X8831968Y-17056484D02*
X8851015Y-17056484D01*
X8993873Y-17046960D02*
X8974825Y-17056484D01*
X8974825Y-17056484D02*
X8936730Y-17056484D01*
X8936730Y-17056484D02*
X8917682Y-17046960D01*
X8917682Y-17046960D02*
X8908158Y-17027912D01*
X8908158Y-17027912D02*
X8908158Y-16951722D01*
X8908158Y-16951722D02*
X8917682Y-16932674D01*
X8917682Y-16932674D02*
X8936730Y-16923150D01*
X8936730Y-16923150D02*
X8974825Y-16923150D01*
X8974825Y-16923150D02*
X8993873Y-16932674D01*
X8993873Y-16932674D02*
X9003396Y-16951722D01*
X9003396Y-16951722D02*
X9003396Y-16970770D01*
X9003396Y-16970770D02*
X8908158Y-16989817D01*
X9174825Y-17056484D02*
X9174825Y-16856484D01*
X9174825Y-17046960D02*
X9155777Y-17056484D01*
X9155777Y-17056484D02*
X9117682Y-17056484D01*
X9117682Y-17056484D02*
X9098635Y-17046960D01*
X9098635Y-17046960D02*
X9089111Y-17037436D01*
X9089111Y-17037436D02*
X9079587Y-17018389D01*
X9079587Y-17018389D02*
X9079587Y-16961246D01*
X9079587Y-16961246D02*
X9089111Y-16942198D01*
X9089111Y-16942198D02*
X9098635Y-16932674D01*
X9098635Y-16932674D02*
X9117682Y-16923150D01*
X9117682Y-16923150D02*
X9155777Y-16923150D01*
X9155777Y-16923150D02*
X9174825Y-16932674D01*
X9251016Y-17132674D02*
X9260539Y-17123150D01*
X9260539Y-17123150D02*
X9279587Y-17094579D01*
X9279587Y-17094579D02*
X9289111Y-17075531D01*
X9289111Y-17075531D02*
X9298635Y-17046960D01*
X9298635Y-17046960D02*
X9308158Y-16999341D01*
X9308158Y-16999341D02*
X9308158Y-16961246D01*
X9308158Y-16961246D02*
X9298635Y-16913627D01*
X9298635Y-16913627D02*
X9289111Y-16885055D01*
X9289111Y-16885055D02*
X9279587Y-16866008D01*
X9279587Y-16866008D02*
X9260539Y-16837436D01*
X9260539Y-16837436D02*
X9251016Y-16827912D01*
M02*
