M48
; DRILL file {KiCad 7.0.10} date Fri 15 Mar 2024 05:15:45 PM PDT
; FORMAT={-:-/ absolute / metric / decimal}
; #@! TF.CreationDate,2024-03-15T17:15:45-07:00
; #@! TF.GenerationSoftware,Kicad,Pcbnew,7.0.10
; #@! TF.FileFunction,Plated,1,4,PTH
FMAT,2
METRIC
; #@! TA.AperFunction,Plated,PTH,ViaDrill
T1C0.300
; #@! TA.AperFunction,Plated,PTH,ViaDrill
T2C0.400
; #@! TA.AperFunction,Plated,PTH,ComponentDrill
T3C0.500
; #@! TA.AperFunction,Plated,PTH,ComponentDrill
T4C0.762
; #@! TA.AperFunction,Plated,PTH,ComponentDrill
T5C0.800
; #@! TA.AperFunction,Plated,PTH,ComponentDrill
T6C0.900
; #@! TA.AperFunction,Plated,PTH,ComponentDrill
T7C1.000
; #@! TA.AperFunction,Plated,PTH,ComponentDrill
T8C1.100
; #@! TA.AperFunction,Plated,PTH,ComponentDrill
T9C3.200
%
G90
G05
T1
X91.075Y-60.475
X91.875Y-61.136
X92.902Y-59.527
X94.4Y-61.125
T2
X32.0Y-47.2
X32.4Y-27.8
X34.4Y-28.6
X34.5Y-22.75
X39.114Y-129.75
X39.25Y-95.25
X43.864Y-130.5
X44.0Y-96.0
X46.361Y-132.269
X47.25Y-110.25
X47.364Y-144.75
X49.25Y-93.5
X50.82Y-138.723
X52.24Y-31.125
X53.5Y-64.75
X54.5Y-33.25
X56.5Y-147.0
X57.865Y-34.75
X57.922Y-40.943
X60.365Y-31.25
X61.75Y-27.75
X62.0Y-26.5
X62.032Y-99.901
X62.25Y-41.0
X65.75Y-25.5
X67.99Y-41.6
X68.615Y-29.5
X68.856Y-44.259
X69.273Y-27.408
X70.115Y-29.75
X71.5Y-42.25
X73.115Y-27.25
X73.25Y-39.75
X74.514Y-129.999
X74.633Y-128.46
X74.75Y-25.75
X74.953Y-115.121
X75.49Y-33.125
X75.679Y-114.41
X75.865Y-38.0
X76.75Y-86.5
X76.8Y-102.85
X77.0Y-52.2
X78.144Y-97.633
X78.25Y-86.5
X78.3Y-102.85
X78.5Y-47.5
X78.75Y-22.5
X78.758Y-63.816
X79.167Y-70.361
X79.593Y-76.451
X80.127Y-49.072
X80.2Y-85.577
X80.589Y-128.055
X81.023Y-67.754
X81.299Y-65.948
X81.372Y-96.928
X81.5Y-48.5
X81.552Y-109.1
X81.682Y-147.237
X82.018Y-60.761
X82.202Y-66.464
X82.5Y-31.25
X82.5Y-36.0
X82.55Y-59.675
X82.673Y-52.738
X82.929Y-67.175
X83.15Y-57.475
X83.398Y-64.116
X83.738Y-82.447
X84.0Y-80.0
X84.088Y-65.714
X84.25Y-56.25
X84.402Y-85.15
X84.5Y-22.75
X84.682Y-101.5
X84.732Y-99.733
X84.803Y-62.885
X84.833Y-114.595
X85.158Y-64.615
X85.388Y-66.583
X85.398Y-79.849
X85.492Y-63.613
X86.5Y-39.5
X86.536Y-50.603
X87.548Y-45.348
X87.55Y-64.343
X88.0Y-86.5
X88.177Y-61.943
X88.25Y-49.25
X88.4Y-75.8
X88.449Y-120.269
X88.454Y-102.67
X88.454Y-115.262
X88.473Y-104.938
X88.5Y-73.075
X88.56Y-74.562
X88.6Y-78.675
X88.6Y-80.175
X88.6Y-82.625
X88.721Y-77.347
X89.434Y-116.683
X89.9Y-83.075
X90.0Y-67.475
X90.0Y-99.4
X90.3Y-66.475
X90.485Y-116.912
X90.668Y-114.722
X90.75Y-97.5
X91.0Y-21.25
X91.0Y-39.5
X91.05Y-72.975
X91.05Y-75.625
X91.098Y-118.589
X91.25Y-103.5
X91.275Y-98.624
X91.525Y-91.326
X92.033Y-113.495
X92.4Y-66.875
X92.5Y-21.25
X92.75Y-95.75
X92.75Y-99.25
X93.15Y-64.625
X93.15Y-65.875
X93.75Y-102.952
X94.0Y-68.618
X94.2Y-56.0
X94.55Y-79.275
X94.573Y-65.548
X94.75Y-112.582
X95.25Y-95.75
X95.25Y-99.25
X95.509Y-142.259
X95.509Y-145.685
X95.75Y-114.74
X95.9Y-82.775
X95.975Y-54.999
X96.0Y-33.5
X96.4Y-64.875
X96.75Y-103.5
X96.884Y-125.076
X97.025Y-91.345
X97.2Y-82.775
X97.5Y-27.0
X97.5Y-65.075
X97.5Y-78.475
X97.595Y-98.87
X97.913Y-111.629
X98.2Y-82.775
X98.234Y-145.231
X98.332Y-105.725
X98.344Y-122.168
X98.385Y-41.923
X98.6Y-103.4
X98.631Y-61.856
X98.7Y-65.075
X98.7Y-78.475
X98.746Y-125.964
X99.363Y-82.783
X99.734Y-65.44
X100.208Y-38.206
X100.218Y-92.517
X100.5Y-82.775
X100.51Y-100.34
X100.703Y-89.292
X101.43Y-88.602
X101.522Y-134.819
X101.9Y-64.875
X102.007Y-105.486
X102.228Y-90.596
X102.243Y-35.994
X102.375Y-70.2
X102.607Y-65.695
X102.612Y-127.139
X102.884Y-79.569
X103.272Y-139.194
X103.65Y-66.975
X103.95Y-64.975
X104.334Y-96.89
X104.362Y-137.685
X104.4Y-82.875
X104.847Y-103.157
X104.932Y-115.487
X104.97Y-94.525
X105.269Y-99.601
X106.053Y-45.68
X106.083Y-92.614
X106.4Y-69.175
X106.4Y-76.375
X106.4Y-79.675
X106.4Y-80.775
X106.5Y-67.975
X106.626Y-78.539
X106.946Y-66.962
X107.13Y-131.502
X107.753Y-39.818
X108.552Y-35.994
X108.66Y-116.32
X108.976Y-129.237
X109.076Y-63.779
X109.453Y-136.003
X109.533Y-96.378
X109.664Y-67.522
X109.729Y-103.769
X110.05Y-58.525
X110.077Y-64.859
X111.126Y-76.755
X111.25Y-93.736
X111.295Y-66.528
X111.5Y-87.975
X111.663Y-71.4
X112.036Y-106.704
X112.774Y-117.561
X112.877Y-61.983
X112.964Y-108.205
X113.258Y-66.241
X113.527Y-124.613
X113.99Y-108.236
X114.189Y-34.188
X114.295Y-31.324
X114.45Y-56.625
X114.72Y-46.121
X115.25Y-89.75
X115.25Y-92.25
X115.418Y-82.133
X115.475Y-73.125
X115.475Y-75.625
X115.491Y-105.486
X116.0Y-95.0
X116.177Y-65.877
X116.2Y-58.6
X116.2Y-60.0
X116.248Y-76.269
X116.254Y-127.726
X116.33Y-75.052
X116.904Y-67.956
X117.577Y-86.216
X117.782Y-84.192
X117.87Y-56.622
X118.449Y-57.462
X118.45Y-66.594
X118.466Y-43.115
X118.75Y-89.75
X118.75Y-92.25
X118.889Y-62.985
X118.9Y-68.125
X118.975Y-70.125
X118.975Y-73.125
X118.975Y-75.625
X118.975Y-78.625
X118.975Y-80.625
X119.038Y-42.164
X119.151Y-82.603
X119.256Y-86.25
X119.367Y-96.172
X119.719Y-42.9
X120.035Y-102.664
X120.191Y-82.53
X120.253Y-66.213
X120.333Y-126.83
X120.41Y-61.943
X120.749Y-41.089
X120.867Y-47.198
X121.412Y-62.0
X121.434Y-67.535
X121.749Y-135.306
X122.283Y-86.65
X122.298Y-98.95
X122.345Y-69.073
X122.436Y-67.619
X122.48Y-48.826
X122.6Y-88.7
X122.616Y-80.518
X122.644Y-125.223
X123.0Y-93.75
X123.225Y-59.569
X123.25Y-71.625
X123.25Y-77.125
X123.254Y-63.926
X123.39Y-79.735
X123.413Y-87.797
X123.509Y-137.965
X123.582Y-83.132
X123.601Y-44.083
X123.626Y-141.323
X123.746Y-94.43
X123.954Y-38.654
X123.976Y-37.478
X124.0Y-58.174
X124.07Y-91.97
X124.314Y-135.3
X124.345Y-42.568
X124.674Y-78.457
X124.819Y-134.273
X125.0Y-49.5
X125.203Y-60.403
X125.4Y-37.4
X125.582Y-69.98
X125.649Y-72.625
X125.686Y-78.236
X125.79Y-144.178
X125.845Y-132.927
X125.944Y-75.834
X126.0Y-38.657
X126.291Y-74.832
X126.316Y-102.13
X126.368Y-59.413
X126.368Y-139.328
X126.5Y-42.0
X126.5Y-45.5
X126.51Y-57.126
X126.675Y-134.745
X126.868Y-63.995
X127.158Y-128.33
X127.348Y-72.741
X127.413Y-38.642
X127.706Y-61.371
X127.783Y-93.423
X127.798Y-75.043
X127.998Y-133.245
X128.094Y-105.717
X128.252Y-146.698
X128.273Y-125.071
X128.312Y-91.904
X128.453Y-38.64
X128.824Y-104.914
X128.955Y-43.068
X129.0Y-42.0
X129.0Y-45.5
X129.383Y-120.447
X129.551Y-38.632
X130.363Y-75.524
X130.367Y-90.993
X130.43Y-54.066
X130.5Y-37.5
X130.5Y-49.5
X130.587Y-44.748
X130.622Y-57.463
X130.771Y-77.147
X131.292Y-38.476
X131.411Y-136.379
X131.6Y-41.6
X131.625Y-82.008
X131.665Y-94.693
X132.114Y-127.805
X132.272Y-117.011
X132.69Y-81.524
X132.793Y-74.017
X132.846Y-76.72
X132.9Y-82.985
X133.073Y-69.402
X133.076Y-62.399
X133.65Y-118.604
X134.4Y-39.8
X134.541Y-94.72
X134.657Y-105.359
X134.8Y-47.2
X135.02Y-68.95
X135.576Y-71.624
X135.66Y-76.559
X135.782Y-79.796
X135.782Y-80.814
X136.17Y-141.782
X136.274Y-67.063
X136.52Y-50.635
X137.239Y-108.645
X137.883Y-59.114
X137.921Y-138.547
X137.925Y-93.212
X138.212Y-120.447
X138.32Y-129.63
X138.428Y-37.47
X138.485Y-82.823
X138.649Y-112.38
X138.779Y-144.541
X139.0Y-28.0
X139.0Y-124.5
X139.195Y-134.438
X139.294Y-118.604
X139.424Y-83.745
X139.826Y-89.585
X139.84Y-87.816
X140.616Y-91.703
X140.623Y-38.587
X140.75Y-124.5
X140.792Y-47.218
X140.884Y-90.701
X141.062Y-73.083
X141.25Y-70.046
X141.257Y-66.906
X141.493Y-87.209
X141.501Y-88.211
X141.742Y-71.704
X141.809Y-47.11
X141.987Y-55.041
X142.036Y-42.014
X142.075Y-86.374
X142.095Y-134.589
X142.145Y-39.435
X142.15Y-128.448
X142.15Y-142.948
X142.307Y-37.463
X142.444Y-139.949
X143.497Y-46.668
X143.638Y-58.515
X143.7Y-28.0
X143.743Y-142.829
X144.004Y-81.098
X144.287Y-127.178
X144.834Y-89.506
X144.944Y-40.672
X145.208Y-136.375
X145.25Y-43.5
X145.466Y-91.212
X145.822Y-141.171
X146.065Y-52.084
X146.129Y-42.827
X146.552Y-146.448
X146.837Y-44.337
X147.0Y-45.5
X147.18Y-91.569
X147.194Y-87.785
X147.78Y-42.442
X148.169Y-69.547
X148.504Y-81.565
X149.228Y-72.702
X149.484Y-99.79
X149.5Y-40.5
X149.508Y-58.501
X149.634Y-47.447
X149.681Y-46.051
X150.477Y-42.604
X150.514Y-100.006
X150.516Y-58.593
X150.582Y-129.806
X150.685Y-46.075
X152.243Y-42.087
X152.47Y-96.619
X153.062Y-35.38
X153.151Y-86.212
X153.212Y-99.849
X153.225Y-129.031
X153.781Y-40.597
X154.387Y-93.743
X154.584Y-45.419
X154.852Y-46.85
X154.864Y-97.281
X155.653Y-132.355
X155.793Y-138.594
X156.07Y-95.958
X156.684Y-142.41
X156.809Y-139.87
X156.94Y-41.625
X157.011Y-127.17
X157.025Y-128.392
X157.147Y-141.14
X157.158Y-71.049
X157.25Y-124.5
X157.273Y-134.874
X157.313Y-72.261
X158.475Y-49.87
X158.7Y-100.188
X158.75Y-38.5
X158.75Y-124.5
X158.842Y-44.24
X159.311Y-80.854
X159.9Y-124.474
X159.988Y-50.898
X160.25Y-42.25
X160.25Y-45.75
X160.631Y-131.119
X161.121Y-137.33
X161.697Y-69.714
X161.709Y-78.964
X162.296Y-49.04
X162.608Y-130.955
X162.75Y-42.25
X162.75Y-45.75
X162.881Y-70.88
X164.25Y-38.5
X164.25Y-50.0
X168.098Y-107.493
X168.316Y-40.0
X168.5Y-47.5
X168.8Y-37.4
X169.013Y-46.375
X170.289Y-110.986
X170.606Y-47.254
X170.75Y-112.5
X173.088Y-103.268
X173.315Y-43.73
X173.786Y-114.621
X173.795Y-106.197
X174.191Y-111.073
X174.332Y-132.219
X174.6Y-41.635
X174.691Y-51.041
X175.5Y-37.75
X177.0Y-103.25
X177.0Y-113.75
X178.0Y-119.8
X180.3Y-119.9
X180.5Y-47.25
X180.8Y-60.4
X180.8Y-62.94
X180.8Y-68.02
X180.8Y-70.56
X180.8Y-73.1
X180.8Y-75.64
X180.8Y-78.18
X180.8Y-80.72
X180.8Y-83.26
X180.8Y-85.8
X180.8Y-88.34
X180.8Y-90.88
X180.8Y-93.42
X180.8Y-95.96
X180.8Y-98.5
X181.75Y-105.75
X182.75Y-39.25
X183.25Y-102.75
T3
X44.39Y-123.54
X44.39Y-125.44
T4
X43.5Y-88.0
X45.75Y-67.5
X46.04Y-88.0
X48.29Y-67.5
X48.58Y-88.0
X50.83Y-67.5
X51.12Y-88.0
X53.37Y-67.5
X55.91Y-67.5
X58.45Y-67.5
X60.99Y-67.5
X63.53Y-67.5
X66.07Y-67.5
X70.17Y-74.665
X70.17Y-77.205
X70.17Y-79.745
X70.17Y-82.285
X70.17Y-84.825
X70.17Y-87.365
X129.157Y-60.403
X129.157Y-62.943
X129.157Y-65.483
X129.157Y-68.023
X129.157Y-70.563
X129.157Y-73.103
X129.157Y-75.643
X129.157Y-78.183
X129.157Y-80.723
X129.157Y-83.263
X129.157Y-85.803
X129.157Y-88.343
X129.157Y-90.883
X129.157Y-93.423
X129.157Y-95.963
X129.157Y-98.503
X129.157Y-101.043
X129.157Y-103.583
X131.697Y-60.403
X131.697Y-62.943
X131.697Y-65.483
X131.697Y-68.023
X131.697Y-70.563
X131.697Y-73.103
X131.697Y-75.643
X131.697Y-78.183
X131.697Y-80.723
X131.697Y-83.263
X131.697Y-85.803
X131.697Y-88.343
X131.697Y-90.883
X131.697Y-93.423
X131.697Y-95.963
X131.697Y-98.503
X131.697Y-101.043
X131.697Y-103.583
X134.237Y-60.403
X134.237Y-62.943
X134.237Y-65.483
X134.237Y-68.023
X134.237Y-70.563
X134.237Y-73.103
X134.237Y-75.643
X134.237Y-78.183
X134.237Y-80.723
X134.237Y-83.263
X134.237Y-85.803
X134.237Y-88.343
X134.237Y-90.883
X134.237Y-93.423
X134.237Y-95.963
X134.237Y-98.503
X134.237Y-101.043
X134.237Y-103.583
X136.778Y-60.403
X136.778Y-62.943
X136.778Y-65.483
X136.778Y-98.503
X136.778Y-101.043
X136.778Y-103.583
X139.317Y-60.403
X139.317Y-62.943
X139.317Y-65.483
X139.317Y-98.503
X139.317Y-101.043
X139.317Y-103.583
X141.857Y-60.403
X141.857Y-62.943
X141.857Y-65.483
X141.857Y-98.503
X141.857Y-101.043
X141.857Y-103.583
X144.397Y-60.403
X144.397Y-62.943
X144.397Y-65.483
X144.397Y-98.503
X144.397Y-101.043
X144.397Y-103.583
X146.938Y-60.403
X146.938Y-62.943
X146.938Y-65.483
X146.938Y-98.503
X146.938Y-101.043
X146.938Y-103.583
X149.477Y-60.403
X149.477Y-62.943
X149.477Y-65.483
X149.477Y-98.503
X149.477Y-101.043
X149.477Y-103.583
X152.017Y-60.403
X152.017Y-62.943
X152.017Y-65.483
X152.017Y-98.503
X152.017Y-101.043
X152.017Y-103.583
X154.558Y-60.403
X154.558Y-62.943
X154.558Y-65.483
X154.558Y-98.503
X154.558Y-101.043
X154.558Y-103.583
X157.097Y-60.403
X157.097Y-62.943
X157.097Y-65.483
X157.097Y-98.503
X157.097Y-101.043
X157.097Y-103.583
X159.637Y-60.403
X159.637Y-62.943
X159.637Y-65.483
X159.637Y-98.503
X159.637Y-101.043
X159.637Y-103.583
X162.177Y-60.403
X162.177Y-62.943
X162.177Y-65.483
X162.177Y-98.503
X162.177Y-101.043
X162.177Y-103.583
X164.718Y-60.403
X164.718Y-62.943
X164.718Y-65.483
X164.718Y-98.503
X164.718Y-101.043
X164.718Y-103.583
X167.257Y-60.403
X167.257Y-62.943
X167.257Y-65.483
X167.257Y-68.023
X167.257Y-70.563
X167.257Y-73.103
X167.257Y-75.643
X167.257Y-78.183
X167.257Y-80.723
X167.257Y-83.263
X167.257Y-85.803
X167.257Y-88.343
X167.257Y-90.883
X167.257Y-93.423
X167.257Y-95.963
X167.257Y-98.503
X167.257Y-101.043
X167.257Y-103.583
X169.797Y-60.403
X169.797Y-62.943
X169.797Y-65.483
X169.797Y-68.023
X169.797Y-70.563
X169.797Y-73.103
X169.797Y-75.643
X169.797Y-78.183
X169.797Y-80.723
X169.797Y-83.263
X169.797Y-85.803
X169.797Y-88.343
X169.797Y-90.883
X169.797Y-93.423
X169.797Y-95.963
X169.797Y-98.503
X169.797Y-101.043
X169.797Y-103.583
X172.338Y-60.403
X172.338Y-62.943
X172.338Y-65.483
X172.338Y-68.023
X172.338Y-70.563
X172.338Y-73.103
X172.338Y-75.643
X172.338Y-78.183
X172.338Y-80.723
X172.338Y-83.263
X172.338Y-85.803
X172.338Y-88.343
X172.338Y-90.883
X172.338Y-93.423
X172.338Y-95.963
X172.338Y-98.503
X172.338Y-101.043
T5
X45.0Y-38.5
X45.0Y-41.0
X53.34Y-95.25
X53.34Y-97.79
X53.34Y-100.33
X53.34Y-102.87
X53.34Y-105.41
X53.34Y-107.95
X53.34Y-110.49
X53.34Y-113.03
X53.34Y-115.57
X53.34Y-118.11
X53.34Y-120.65
X53.34Y-123.19
X53.34Y-125.73
X53.34Y-128.27
X53.34Y-130.81
X53.34Y-133.35
X53.34Y-135.89
X53.34Y-138.43
X53.34Y-140.97
X53.34Y-143.51
X68.58Y-95.25
X68.58Y-97.79
X68.58Y-100.33
X68.58Y-102.87
X68.58Y-105.41
X68.58Y-107.95
X68.58Y-110.49
X68.58Y-113.03
X68.58Y-115.57
X68.58Y-118.11
X68.58Y-120.65
X68.58Y-123.19
X68.58Y-125.73
X68.58Y-128.27
X68.58Y-130.81
X68.58Y-133.35
X68.58Y-135.89
X68.58Y-138.43
X68.58Y-140.97
X68.58Y-143.51
X77.25Y-119.295
X77.25Y-121.295
X89.2Y-123.02
X89.2Y-125.56
X89.2Y-128.1
X89.2Y-130.64
X89.2Y-133.18
X89.2Y-135.72
X89.2Y-138.26
X89.2Y-140.8
X89.2Y-143.34
X91.74Y-120.48
X91.74Y-123.02
X91.74Y-125.56
X91.74Y-128.1
X91.74Y-130.64
X91.74Y-133.18
X91.74Y-135.72
X91.74Y-138.26
X91.74Y-140.8
X91.74Y-143.34
X91.74Y-145.88
X94.28Y-120.48
X94.28Y-123.02
X94.28Y-143.34
X94.28Y-145.88
X96.82Y-120.48
X96.82Y-123.02
X96.82Y-143.34
X96.82Y-145.88
X99.36Y-120.48
X99.36Y-123.02
X99.36Y-143.34
X99.36Y-145.88
X101.9Y-120.48
X101.9Y-123.02
X101.9Y-143.34
X101.9Y-145.88
X104.44Y-120.48
X104.44Y-123.02
X104.44Y-143.34
X104.44Y-145.88
X106.98Y-120.48
X106.98Y-123.02
X106.98Y-143.34
X106.98Y-145.88
X109.52Y-120.48
X109.52Y-123.02
X109.52Y-143.34
X109.52Y-145.88
X112.06Y-120.48
X112.06Y-123.02
X112.06Y-125.56
X112.06Y-128.1
X112.06Y-130.64
X112.06Y-133.18
X112.06Y-135.72
X112.06Y-138.26
X112.06Y-140.8
X112.06Y-143.34
X112.06Y-145.88
X114.6Y-123.02
X114.6Y-125.56
X114.6Y-128.1
X114.6Y-130.64
X114.6Y-133.18
X114.6Y-135.72
X114.6Y-138.26
X114.6Y-140.8
X114.6Y-143.34
X132.237Y-55.323
X134.237Y-55.323
X142.083Y-53.291
X144.623Y-53.291
X147.163Y-53.291
X149.703Y-53.291
X152.243Y-53.291
X154.783Y-53.291
X157.323Y-53.291
X159.863Y-53.291
X162.403Y-53.291
X164.943Y-53.291
X168.6Y-127.6
X168.6Y-135.22
X168.6Y-142.84
X170.338Y-55.323
X172.338Y-55.323
X176.22Y-127.6
X176.22Y-135.22
X176.22Y-142.84
T6
X32.5Y-76.535
X32.5Y-79.075
T7
X32.21Y-96.52
X32.21Y-99.29
X32.21Y-102.06
X32.21Y-104.83
X32.21Y-132.08
X32.21Y-134.85
X32.21Y-137.62
X32.21Y-140.39
X35.05Y-95.135
X35.05Y-97.905
X35.05Y-100.675
X35.05Y-103.445
X35.05Y-106.215
X35.05Y-130.695
X35.05Y-133.465
X35.05Y-136.235
X35.05Y-139.005
X35.05Y-141.775
T8
X30.48Y-50.8
X30.48Y-57.3
X30.48Y-63.5
X30.48Y-70.0
X34.98Y-50.8
X34.98Y-57.3
X34.98Y-63.5
X34.98Y-70.0
T9
X34.75Y-88.175
X34.75Y-113.175
X34.75Y-123.735
X34.75Y-148.735
T3
X26.225Y-22.35G85X26.925Y-22.35
G05
X26.225Y-28.95G85X26.925Y-28.95
G05
T7
X30.53Y-36.35G85X30.53Y-38.55
G05
X35.03Y-42.25G85X32.83Y-42.25
G05
X36.83Y-36.15G85X36.83Y-38.75
G05
M30
