G04 #@! TF.GenerationSoftware,KiCad,Pcbnew,7.0.10*
G04 #@! TF.CreationDate,2024-03-15T17:14:54-07:00*
G04 #@! TF.ProjectId,testboard,74657374-626f-4617-9264-2e6b69636164,rev?*
G04 #@! TF.SameCoordinates,Original*
G04 #@! TF.FileFunction,Paste,Top*
G04 #@! TF.FilePolarity,Positive*
%FSLAX46Y46*%
G04 Gerber Fmt 4.6, Leading zero omitted, Abs format (unit mm)*
G04 Created by KiCad (PCBNEW 7.0.10) date 2024-03-15 17:14:54*
%MOMM*%
%LPD*%
G01*
G04 APERTURE LIST*
G04 Aperture macros list*
%AMRoundRect*
0 Rectangle with rounded corners*
0 $1 Rounding radius*
0 $2 $3 $4 $5 $6 $7 $8 $9 X,Y pos of 4 corners*
0 Add a 4 corners polygon primitive as box body*
4,1,4,$2,$3,$4,$5,$6,$7,$8,$9,$2,$3,0*
0 Add four circle primitives for the rounded corners*
1,1,$1+$1,$2,$3*
1,1,$1+$1,$4,$5*
1,1,$1+$1,$6,$7*
1,1,$1+$1,$8,$9*
0 Add four rect primitives between the rounded corners*
20,1,$1+$1,$2,$3,$4,$5,0*
20,1,$1+$1,$4,$5,$6,$7,0*
20,1,$1+$1,$6,$7,$8,$9,0*
20,1,$1+$1,$8,$9,$2,$3,0*%
G04 Aperture macros list end*
%ADD10RoundRect,0.100000X-0.575000X0.100000X-0.575000X-0.100000X0.575000X-0.100000X0.575000X0.100000X0*%
%ADD11O,1.600000X0.900000*%
%ADD12RoundRect,0.250000X-0.450000X0.550000X-0.450000X-0.550000X0.450000X-0.550000X0.450000X0.550000X0*%
%ADD13RoundRect,0.250000X-0.700000X0.700000X-0.700000X-0.700000X0.700000X-0.700000X0.700000X0.700000X0*%
%ADD14R,1.600000X0.600000*%
%ADD15RoundRect,0.200000X-0.275000X0.200000X-0.275000X-0.200000X0.275000X-0.200000X0.275000X0.200000X0*%
%ADD16RoundRect,0.225000X0.250000X-0.225000X0.250000X0.225000X-0.250000X0.225000X-0.250000X-0.225000X0*%
%ADD17RoundRect,0.250000X-0.300000X2.050000X-0.300000X-2.050000X0.300000X-2.050000X0.300000X2.050000X0*%
%ADD18RoundRect,0.250000X-2.375000X2.025000X-2.375000X-2.025000X2.375000X-2.025000X2.375000X2.025000X0*%
%ADD19RoundRect,0.250000X0.275000X-0.312500X0.275000X0.312500X-0.275000X0.312500X-0.275000X-0.312500X0*%
%ADD20RoundRect,0.200000X0.200000X0.275000X-0.200000X0.275000X-0.200000X-0.275000X0.200000X-0.275000X0*%
%ADD21RoundRect,0.200000X-0.200000X-0.275000X0.200000X-0.275000X0.200000X0.275000X-0.200000X0.275000X0*%
%ADD22RoundRect,0.150000X-0.150000X0.512500X-0.150000X-0.512500X0.150000X-0.512500X0.150000X0.512500X0*%
%ADD23RoundRect,0.250000X-0.325000X-0.450000X0.325000X-0.450000X0.325000X0.450000X-0.325000X0.450000X0*%
%ADD24RoundRect,0.225000X0.225000X0.250000X-0.225000X0.250000X-0.225000X-0.250000X0.225000X-0.250000X0*%
%ADD25RoundRect,0.250000X-0.475000X0.250000X-0.475000X-0.250000X0.475000X-0.250000X0.475000X0.250000X0*%
%ADD26RoundRect,0.218750X0.256250X-0.218750X0.256250X0.218750X-0.256250X0.218750X-0.256250X-0.218750X0*%
%ADD27RoundRect,0.225000X-0.225000X-0.250000X0.225000X-0.250000X0.225000X0.250000X-0.225000X0.250000X0*%
%ADD28RoundRect,0.150000X0.650000X0.150000X-0.650000X0.150000X-0.650000X-0.150000X0.650000X-0.150000X0*%
%ADD29RoundRect,0.218750X-0.256250X0.218750X-0.256250X-0.218750X0.256250X-0.218750X0.256250X0.218750X0*%
%ADD30R,1.400000X1.200000*%
%ADD31RoundRect,0.250000X0.250000X0.475000X-0.250000X0.475000X-0.250000X-0.475000X0.250000X-0.475000X0*%
%ADD32RoundRect,0.075000X0.075000X-0.662500X0.075000X0.662500X-0.075000X0.662500X-0.075000X-0.662500X0*%
%ADD33RoundRect,0.250000X-0.250000X-0.250000X0.250000X-0.250000X0.250000X0.250000X-0.250000X0.250000X0*%
%ADD34RoundRect,0.062500X-0.412500X-0.062500X0.412500X-0.062500X0.412500X0.062500X-0.412500X0.062500X0*%
%ADD35RoundRect,0.062500X-0.062500X-0.412500X0.062500X-0.412500X0.062500X0.412500X-0.062500X0.412500X0*%
%ADD36RoundRect,0.225000X-0.250000X0.225000X-0.250000X-0.225000X0.250000X-0.225000X0.250000X0.225000X0*%
%ADD37RoundRect,0.150000X0.150000X-0.825000X0.150000X0.825000X-0.150000X0.825000X-0.150000X-0.825000X0*%
%ADD38RoundRect,0.218750X0.218750X0.256250X-0.218750X0.256250X-0.218750X-0.256250X0.218750X-0.256250X0*%
%ADD39RoundRect,0.100000X0.637500X0.100000X-0.637500X0.100000X-0.637500X-0.100000X0.637500X-0.100000X0*%
%ADD40RoundRect,0.075000X0.662500X0.075000X-0.662500X0.075000X-0.662500X-0.075000X0.662500X-0.075000X0*%
%ADD41RoundRect,0.075000X0.075000X0.662500X-0.075000X0.662500X-0.075000X-0.662500X0.075000X-0.662500X0*%
%ADD42RoundRect,0.250000X-0.250000X-0.475000X0.250000X-0.475000X0.250000X0.475000X-0.250000X0.475000X0*%
%ADD43RoundRect,0.200000X0.275000X-0.200000X0.275000X0.200000X-0.275000X0.200000X-0.275000X-0.200000X0*%
%ADD44RoundRect,0.150000X0.150000X-0.512500X0.150000X0.512500X-0.150000X0.512500X-0.150000X-0.512500X0*%
%ADD45RoundRect,0.250000X0.312500X0.275000X-0.312500X0.275000X-0.312500X-0.275000X0.312500X-0.275000X0*%
%ADD46R,1.100000X1.300000*%
%ADD47RoundRect,0.150000X-0.150000X0.825000X-0.150000X-0.825000X0.150000X-0.825000X0.150000X0.825000X0*%
%ADD48RoundRect,0.150000X0.512500X0.150000X-0.512500X0.150000X-0.512500X-0.150000X0.512500X-0.150000X0*%
G04 APERTURE END LIST*
D10*
X29250000Y-24350000D03*
X29250000Y-25000000D03*
X29250000Y-25650000D03*
X29250000Y-26300000D03*
X29250000Y-26950000D03*
D11*
X26575000Y-22350000D03*
D12*
X29025000Y-22450000D03*
D13*
X26575000Y-24450000D03*
X26575000Y-26850000D03*
D12*
X29025000Y-28850000D03*
D11*
X26575000Y-28950000D03*
D14*
X147480000Y-125900000D03*
X147480000Y-127170000D03*
X147480000Y-128440000D03*
X147480000Y-129710000D03*
X147480000Y-130980000D03*
X147480000Y-132250000D03*
X147480000Y-133520000D03*
X147480000Y-134800000D03*
X147480000Y-136050000D03*
X147480000Y-137330000D03*
X147480000Y-138600000D03*
X147480000Y-139870000D03*
X147480000Y-141140000D03*
X147480000Y-142410000D03*
X147480000Y-143680000D03*
X147480000Y-144950000D03*
X158680000Y-144950000D03*
X158680000Y-143680000D03*
X158680000Y-142410000D03*
X158680000Y-141140000D03*
X158680000Y-139870000D03*
X158680000Y-138600000D03*
X158680000Y-137330000D03*
X158680000Y-136050000D03*
X158680000Y-134800000D03*
X158680000Y-133520000D03*
X158680000Y-132250000D03*
X158680000Y-130980000D03*
X158680000Y-129710000D03*
X158680000Y-128440000D03*
X158680000Y-127170000D03*
X158680000Y-125900000D03*
D15*
X67615000Y-24850000D03*
X67615000Y-26500000D03*
D16*
X73115000Y-25800000D03*
X73115000Y-24250000D03*
D17*
X91750000Y-24500000D03*
X89210000Y-24500000D03*
D18*
X91985000Y-31225000D03*
X86435000Y-31225000D03*
X91985000Y-36075000D03*
X86435000Y-36075000D03*
D17*
X86670000Y-24500000D03*
D19*
X109650000Y-61737500D03*
X109650000Y-59962500D03*
D20*
X179067500Y-93423000D03*
X177417500Y-93423000D03*
D21*
X32400000Y-73000000D03*
X34050000Y-73000000D03*
D20*
X179067500Y-98503000D03*
X177417500Y-98503000D03*
D22*
X180400000Y-114193000D03*
X179450000Y-114193000D03*
X178500000Y-114193000D03*
X178500000Y-116468000D03*
X180400000Y-116468000D03*
D23*
X177417500Y-65483000D03*
X179467500Y-65483000D03*
D24*
X155827500Y-57863000D03*
X154277500Y-57863000D03*
X158750000Y-123250000D03*
X157200000Y-123250000D03*
D25*
X47350000Y-141348000D03*
X47350000Y-143248000D03*
D20*
X179067500Y-70563000D03*
X177417500Y-70563000D03*
D26*
X32400000Y-24825000D03*
X32400000Y-26400000D03*
D27*
X180950000Y-37750000D03*
X182500000Y-37750000D03*
D16*
X183250000Y-105750000D03*
X183250000Y-104200000D03*
D20*
X179067500Y-83263000D03*
X177417500Y-83263000D03*
D24*
X71865000Y-41000000D03*
X70315000Y-41000000D03*
D16*
X176220000Y-132172000D03*
X176220000Y-130622000D03*
D28*
X87950000Y-54285000D03*
X87950000Y-53015000D03*
X87950000Y-51745000D03*
X87950000Y-50475000D03*
X80750000Y-50475000D03*
X80750000Y-51745000D03*
X80750000Y-53015000D03*
X80750000Y-54285000D03*
D29*
X83900000Y-59800000D03*
X83900000Y-61375000D03*
D26*
X34400000Y-27175000D03*
X34400000Y-25600000D03*
D24*
X132967500Y-107393000D03*
X131417500Y-107393000D03*
D20*
X179067500Y-88343000D03*
X177417500Y-88343000D03*
X114900000Y-98500000D03*
X113250000Y-98500000D03*
D24*
X64415000Y-29000000D03*
X62865000Y-29000000D03*
D20*
X179067500Y-90883000D03*
X177417500Y-90883000D03*
D30*
X58065000Y-28250000D03*
X55865000Y-28250000D03*
X55865000Y-29950000D03*
X58065000Y-29950000D03*
D31*
X41762000Y-141856000D03*
X39862000Y-141856000D03*
D24*
X178410000Y-37750000D03*
X176860000Y-37750000D03*
D32*
X155750000Y-47675000D03*
X156250000Y-47675000D03*
X156750000Y-47675000D03*
X157250000Y-47675000D03*
X157750000Y-47675000D03*
X158250000Y-47675000D03*
X158750000Y-47675000D03*
X159250000Y-47675000D03*
X159750000Y-47675000D03*
X160250000Y-47675000D03*
X160750000Y-47675000D03*
X161250000Y-47675000D03*
X161750000Y-47675000D03*
X162250000Y-47675000D03*
X162750000Y-47675000D03*
X163250000Y-47675000D03*
X163750000Y-47675000D03*
X164250000Y-47675000D03*
X164750000Y-47675000D03*
X165250000Y-47675000D03*
X165750000Y-47675000D03*
X166250000Y-47675000D03*
X166750000Y-47675000D03*
X167250000Y-47675000D03*
X167250000Y-40250000D03*
X166750000Y-40250000D03*
X166250000Y-40250000D03*
X165750000Y-40250000D03*
X165250000Y-40250000D03*
X164750000Y-40250000D03*
X164250000Y-40250000D03*
X163750000Y-40250000D03*
X163250000Y-40250000D03*
X162750000Y-40250000D03*
X162250000Y-40250000D03*
X161750000Y-40250000D03*
X161250000Y-40250000D03*
X160750000Y-40250000D03*
X160250000Y-40250000D03*
X159750000Y-40250000D03*
X159250000Y-40250000D03*
X158750000Y-40250000D03*
X158250000Y-40250000D03*
X157750000Y-40250000D03*
X157250000Y-40250000D03*
X156750000Y-40250000D03*
X156250000Y-40250000D03*
X155750000Y-40250000D03*
D33*
X65395000Y-32770000D03*
X65395000Y-34010000D03*
X65395000Y-35250000D03*
X65395000Y-36490000D03*
X65395000Y-37730000D03*
X66635000Y-32770000D03*
X66635000Y-34010000D03*
X66635000Y-35250000D03*
X66635000Y-36490000D03*
X66635000Y-37730000D03*
X67875000Y-32770000D03*
X67875000Y-34010000D03*
X67875000Y-35250000D03*
X67875000Y-36490000D03*
X67875000Y-37730000D03*
X69115000Y-32770000D03*
X69115000Y-34010000D03*
X69115000Y-35250000D03*
X69115000Y-36490000D03*
X69115000Y-37730000D03*
X70355000Y-32770000D03*
X70355000Y-34010000D03*
X70355000Y-35250000D03*
X70355000Y-36490000D03*
X70355000Y-37730000D03*
D34*
X64000000Y-32500000D03*
X64000000Y-33000000D03*
X64000000Y-33500000D03*
X64000000Y-34000000D03*
X64000000Y-34500000D03*
X64000000Y-35000000D03*
X64000000Y-35500000D03*
X64000000Y-36000000D03*
X64000000Y-36500000D03*
X64000000Y-37000000D03*
X64000000Y-37500000D03*
X64000000Y-38000000D03*
D35*
X65125000Y-39125000D03*
X65625000Y-39125000D03*
X66125000Y-39125000D03*
X66625000Y-39125000D03*
X67125000Y-39125000D03*
X67625000Y-39125000D03*
X68125000Y-39125000D03*
X68625000Y-39125000D03*
X69125000Y-39125000D03*
X69625000Y-39125000D03*
X70125000Y-39125000D03*
X70625000Y-39125000D03*
D34*
X71750000Y-38000000D03*
X71750000Y-37500000D03*
X71750000Y-37000000D03*
X71750000Y-36500000D03*
X71750000Y-36000000D03*
X71750000Y-35500000D03*
X71750000Y-35000000D03*
X71750000Y-34500000D03*
X71750000Y-34000000D03*
X71750000Y-33500000D03*
X71750000Y-33000000D03*
X71750000Y-32500000D03*
D35*
X70625000Y-31375000D03*
X70125000Y-31375000D03*
X69625000Y-31375000D03*
X69125000Y-31375000D03*
X68625000Y-31375000D03*
X68125000Y-31375000D03*
X67625000Y-31375000D03*
X67125000Y-31375000D03*
X66625000Y-31375000D03*
X66125000Y-31375000D03*
X65625000Y-31375000D03*
X65125000Y-31375000D03*
D36*
X60865000Y-37750000D03*
X60865000Y-39300000D03*
X61115000Y-33250000D03*
X61115000Y-34800000D03*
D37*
X41000000Y-138808000D03*
X42270000Y-138808000D03*
X43540000Y-138808000D03*
X44810000Y-138808000D03*
X46080000Y-138808000D03*
X47350000Y-138808000D03*
X48620000Y-138808000D03*
X49890000Y-138808000D03*
X49890000Y-133858000D03*
X48620000Y-133858000D03*
X47350000Y-133858000D03*
X46080000Y-133858000D03*
X44810000Y-133858000D03*
X43540000Y-133858000D03*
X42270000Y-133858000D03*
X41000000Y-133858000D03*
D38*
X34325000Y-21250000D03*
X32750000Y-21250000D03*
X57365000Y-33250000D03*
X55790000Y-33250000D03*
D27*
X140750000Y-28000000D03*
X142300000Y-28000000D03*
D39*
X82378000Y-85048000D03*
X82378000Y-84398000D03*
X82378000Y-83748000D03*
X82378000Y-83098000D03*
X82378000Y-82448000D03*
X82378000Y-81798000D03*
X82378000Y-81148000D03*
X76653000Y-81148000D03*
X76653000Y-81798000D03*
X76653000Y-82448000D03*
X76653000Y-83098000D03*
X76653000Y-83748000D03*
X76653000Y-84398000D03*
X76653000Y-85048000D03*
D37*
X40886000Y-104378000D03*
X42156000Y-104378000D03*
X43426000Y-104378000D03*
X44696000Y-104378000D03*
X45966000Y-104378000D03*
X47236000Y-104378000D03*
X48506000Y-104378000D03*
X49776000Y-104378000D03*
X49776000Y-99428000D03*
X48506000Y-99428000D03*
X47236000Y-99428000D03*
X45966000Y-99428000D03*
X44696000Y-99428000D03*
X43426000Y-99428000D03*
X42156000Y-99428000D03*
X40886000Y-99428000D03*
D24*
X140500000Y-123250000D03*
X138950000Y-123250000D03*
D25*
X47236000Y-106918000D03*
X47236000Y-108818000D03*
D20*
X179067500Y-95963000D03*
X177417500Y-95963000D03*
D21*
X33350000Y-47250000D03*
X35000000Y-47250000D03*
D40*
X120712500Y-96750000D03*
X120712500Y-96250000D03*
X120712500Y-95750000D03*
X120712500Y-95250000D03*
X120712500Y-94750000D03*
X120712500Y-94250000D03*
X120712500Y-93750000D03*
X120712500Y-93250000D03*
X120712500Y-92750000D03*
X120712500Y-92250000D03*
X120712500Y-91750000D03*
X120712500Y-91250000D03*
X120712500Y-90750000D03*
X120712500Y-90250000D03*
X120712500Y-89750000D03*
X120712500Y-89250000D03*
X120712500Y-88750000D03*
X120712500Y-88250000D03*
X120712500Y-87750000D03*
X120712500Y-87250000D03*
X120712500Y-86750000D03*
X120712500Y-86250000D03*
X120712500Y-85750000D03*
X120712500Y-85250000D03*
X113287500Y-85250000D03*
X113287500Y-85750000D03*
X113287500Y-86250000D03*
X113287500Y-86750000D03*
X113287500Y-87250000D03*
X113287500Y-87750000D03*
X113287500Y-88250000D03*
X113287500Y-88750000D03*
X113287500Y-89250000D03*
X113287500Y-89750000D03*
X113287500Y-90250000D03*
X113287500Y-90750000D03*
X113287500Y-91250000D03*
X113287500Y-91750000D03*
X113287500Y-92250000D03*
X113287500Y-92750000D03*
X113287500Y-93250000D03*
X113287500Y-93750000D03*
X113287500Y-94250000D03*
X113287500Y-94750000D03*
X113287500Y-95250000D03*
X113287500Y-95750000D03*
X113287500Y-96250000D03*
X113287500Y-96750000D03*
D27*
X76750000Y-87750000D03*
X78300000Y-87750000D03*
X48260000Y-125730000D03*
X49810000Y-125730000D03*
D20*
X96150000Y-59875000D03*
X94500000Y-59875000D03*
D21*
X63215000Y-27000000D03*
X64865000Y-27000000D03*
D15*
X86400000Y-61225000D03*
X86400000Y-62875000D03*
D40*
X108322500Y-82618000D03*
X108322500Y-82118000D03*
X108322500Y-81618000D03*
X108322500Y-81118000D03*
X108322500Y-80618000D03*
X108322500Y-80118000D03*
X108322500Y-79618000D03*
X108322500Y-79118000D03*
X108322500Y-78618000D03*
X108322500Y-78118000D03*
X108322500Y-77618000D03*
X108322500Y-77118000D03*
X108322500Y-76618000D03*
X108322500Y-76118000D03*
X108322500Y-75618000D03*
X108322500Y-75118000D03*
X108322500Y-74618000D03*
X108322500Y-74118000D03*
X108322500Y-73618000D03*
X108322500Y-73118000D03*
X108322500Y-72618000D03*
X108322500Y-72118000D03*
X108322500Y-71618000D03*
X108322500Y-71118000D03*
X108322500Y-70618000D03*
X108322500Y-70118000D03*
X108322500Y-69618000D03*
X108322500Y-69118000D03*
X108322500Y-68618000D03*
X108322500Y-68118000D03*
X108322500Y-67618000D03*
X108322500Y-67118000D03*
X108322500Y-66618000D03*
X108322500Y-66118000D03*
X108322500Y-65618000D03*
X108322500Y-65118000D03*
D41*
X106410000Y-63205500D03*
X105910000Y-63205500D03*
X105410000Y-63205500D03*
X104910000Y-63205500D03*
X104410000Y-63205500D03*
X103910000Y-63205500D03*
X103410000Y-63205500D03*
X102910000Y-63205500D03*
X102410000Y-63205500D03*
X101910000Y-63205500D03*
X101410000Y-63205500D03*
X100910000Y-63205500D03*
X100410000Y-63205500D03*
X99910000Y-63205500D03*
X99410000Y-63205500D03*
X98910000Y-63205500D03*
X98410000Y-63205500D03*
X97910000Y-63205500D03*
X97410000Y-63205500D03*
X96910000Y-63205500D03*
X96410000Y-63205500D03*
X95910000Y-63205500D03*
X95410000Y-63205500D03*
X94910000Y-63205500D03*
X94410000Y-63205500D03*
X93910000Y-63205500D03*
X93410000Y-63205500D03*
X92910000Y-63205500D03*
X92410000Y-63205500D03*
X91910000Y-63205500D03*
X91410000Y-63205500D03*
X90910000Y-63205500D03*
X90410000Y-63205500D03*
X89910000Y-63205500D03*
X89410000Y-63205500D03*
X88910000Y-63205500D03*
D40*
X86997500Y-65118000D03*
X86997500Y-65618000D03*
X86997500Y-66118000D03*
X86997500Y-66618000D03*
X86997500Y-67118000D03*
X86997500Y-67618000D03*
X86997500Y-68118000D03*
X86997500Y-68618000D03*
X86997500Y-69118000D03*
X86997500Y-69618000D03*
X86997500Y-70118000D03*
X86997500Y-70618000D03*
X86997500Y-71118000D03*
X86997500Y-71618000D03*
X86997500Y-72118000D03*
X86997500Y-72618000D03*
X86997500Y-73118000D03*
X86997500Y-73618000D03*
X86997500Y-74118000D03*
X86997500Y-74618000D03*
X86997500Y-75118000D03*
X86997500Y-75618000D03*
X86997500Y-76118000D03*
X86997500Y-76618000D03*
X86997500Y-77118000D03*
X86997500Y-77618000D03*
X86997500Y-78118000D03*
X86997500Y-78618000D03*
X86997500Y-79118000D03*
X86997500Y-79618000D03*
X86997500Y-80118000D03*
X86997500Y-80618000D03*
X86997500Y-81118000D03*
X86997500Y-81618000D03*
X86997500Y-82118000D03*
X86997500Y-82618000D03*
D41*
X88910000Y-84530500D03*
X89410000Y-84530500D03*
X89910000Y-84530500D03*
X90410000Y-84530500D03*
X90910000Y-84530500D03*
X91410000Y-84530500D03*
X91910000Y-84530500D03*
X92410000Y-84530500D03*
X92910000Y-84530500D03*
X93410000Y-84530500D03*
X93910000Y-84530500D03*
X94410000Y-84530500D03*
X94910000Y-84530500D03*
X95410000Y-84530500D03*
X95910000Y-84530500D03*
X96410000Y-84530500D03*
X96910000Y-84530500D03*
X97410000Y-84530500D03*
X97910000Y-84530500D03*
X98410000Y-84530500D03*
X98910000Y-84530500D03*
X99410000Y-84530500D03*
X99910000Y-84530500D03*
X100410000Y-84530500D03*
X100910000Y-84530500D03*
X101410000Y-84530500D03*
X101910000Y-84530500D03*
X102410000Y-84530500D03*
X102910000Y-84530500D03*
X103410000Y-84530500D03*
X103910000Y-84530500D03*
X104410000Y-84530500D03*
X104910000Y-84530500D03*
X105410000Y-84530500D03*
X105910000Y-84530500D03*
X106410000Y-84530500D03*
D27*
X53340000Y-147320000D03*
X54890000Y-147320000D03*
D42*
X40614000Y-130500000D03*
X42514000Y-130500000D03*
D20*
X179067500Y-68023000D03*
X177417500Y-68023000D03*
D25*
X44810000Y-141348000D03*
X44810000Y-143248000D03*
D20*
X179067500Y-73103000D03*
X177417500Y-73103000D03*
D15*
X73865000Y-34250000D03*
X73865000Y-35900000D03*
D16*
X60365000Y-29800000D03*
X60365000Y-28250000D03*
D21*
X177417500Y-60403000D03*
X179067500Y-60403000D03*
D20*
X179067500Y-75643000D03*
X177417500Y-75643000D03*
D27*
X80750000Y-56315000D03*
X82300000Y-56315000D03*
D16*
X117600000Y-59950000D03*
X117600000Y-58400000D03*
D36*
X172845500Y-111073000D03*
X172845500Y-112623000D03*
D43*
X81682500Y-145987000D03*
X81682500Y-144337000D03*
D39*
X82525000Y-101500000D03*
X82525000Y-100850000D03*
X82525000Y-100200000D03*
X82525000Y-99550000D03*
X82525000Y-98900000D03*
X82525000Y-98250000D03*
X82525000Y-97600000D03*
X76800000Y-97600000D03*
X76800000Y-98250000D03*
X76800000Y-98900000D03*
X76800000Y-99550000D03*
X76800000Y-100200000D03*
X76800000Y-100850000D03*
X76800000Y-101500000D03*
D43*
X83682500Y-147237000D03*
X83682500Y-145587000D03*
D20*
X179067500Y-78183000D03*
X177417500Y-78183000D03*
D19*
X97500000Y-30250000D03*
X97500000Y-28475000D03*
D20*
X88050000Y-58375000D03*
X86400000Y-58375000D03*
D27*
X76800000Y-104350000D03*
X78350000Y-104350000D03*
D20*
X178790000Y-47910000D03*
X177140000Y-47910000D03*
D24*
X169097500Y-106123000D03*
X167547500Y-106123000D03*
D36*
X59115000Y-37750000D03*
X59115000Y-39300000D03*
D27*
X101980000Y-115480000D03*
X103530000Y-115480000D03*
D15*
X50800000Y-93600000D03*
X50800000Y-95250000D03*
D20*
X94050000Y-58125000D03*
X92400000Y-58125000D03*
D44*
X69215000Y-26000000D03*
X70165000Y-26000000D03*
X71115000Y-26000000D03*
X71115000Y-23725000D03*
X70165000Y-23725000D03*
X69215000Y-23725000D03*
D42*
X40878000Y-144396000D03*
X42778000Y-144396000D03*
D15*
X40000000Y-68350000D03*
X40000000Y-70000000D03*
D20*
X179067500Y-85803000D03*
X177417500Y-85803000D03*
D42*
X40891000Y-110093000D03*
X42791000Y-110093000D03*
D45*
X82250000Y-22500000D03*
X80475000Y-22500000D03*
D36*
X53615000Y-28200000D03*
X53615000Y-29750000D03*
D46*
X172790000Y-132240000D03*
X172790000Y-130140000D03*
X171140000Y-130140000D03*
X171140000Y-132240000D03*
D24*
X180212000Y-118500000D03*
X178662000Y-118500000D03*
D39*
X149132500Y-45230500D03*
X149132500Y-44580500D03*
X149132500Y-43930500D03*
X149132500Y-43280500D03*
X149132500Y-42630500D03*
X149132500Y-41980500D03*
X149132500Y-41330500D03*
X143407500Y-41330500D03*
X143407500Y-41980500D03*
X143407500Y-42630500D03*
X143407500Y-43280500D03*
X143407500Y-43930500D03*
X143407500Y-44580500D03*
X143407500Y-45230500D03*
D24*
X60865000Y-41000000D03*
X59315000Y-41000000D03*
D29*
X57365000Y-37750000D03*
X57365000Y-39325000D03*
D24*
X55740000Y-31625000D03*
X54190000Y-31625000D03*
D36*
X73865000Y-29000000D03*
X73865000Y-30550000D03*
D47*
X180950000Y-40290000D03*
X179680000Y-40290000D03*
X178410000Y-40290000D03*
X177140000Y-40290000D03*
X177140000Y-45240000D03*
X178410000Y-45240000D03*
X179680000Y-45240000D03*
X180950000Y-45240000D03*
D14*
X129400000Y-125900000D03*
X129400000Y-127170000D03*
X129400000Y-128440000D03*
X129400000Y-129710000D03*
X129400000Y-130980000D03*
X129400000Y-132250000D03*
X129400000Y-133520000D03*
X129400000Y-134800000D03*
X129400000Y-136050000D03*
X129400000Y-137330000D03*
X129400000Y-138600000D03*
X129400000Y-139870000D03*
X129400000Y-141140000D03*
X129400000Y-142410000D03*
X129400000Y-143680000D03*
X129400000Y-144950000D03*
X140600000Y-144950000D03*
X140600000Y-143680000D03*
X140600000Y-142410000D03*
X140600000Y-141140000D03*
X140600000Y-139870000D03*
X140600000Y-138600000D03*
X140600000Y-137330000D03*
X140600000Y-136050000D03*
X140600000Y-134800000D03*
X140600000Y-133520000D03*
X140600000Y-132250000D03*
X140600000Y-130980000D03*
X140600000Y-129710000D03*
X140600000Y-128440000D03*
X140600000Y-127170000D03*
X140600000Y-125900000D03*
D36*
X126617500Y-94693000D03*
X126617500Y-96243000D03*
D32*
X122000000Y-47425000D03*
X122500000Y-47425000D03*
X123000000Y-47425000D03*
X123500000Y-47425000D03*
X124000000Y-47425000D03*
X124500000Y-47425000D03*
X125000000Y-47425000D03*
X125500000Y-47425000D03*
X126000000Y-47425000D03*
X126500000Y-47425000D03*
X127000000Y-47425000D03*
X127500000Y-47425000D03*
X128000000Y-47425000D03*
X128500000Y-47425000D03*
X129000000Y-47425000D03*
X129500000Y-47425000D03*
X130000000Y-47425000D03*
X130500000Y-47425000D03*
X131000000Y-47425000D03*
X131500000Y-47425000D03*
X132000000Y-47425000D03*
X132500000Y-47425000D03*
X133000000Y-47425000D03*
X133500000Y-47425000D03*
X133500000Y-40000000D03*
X133000000Y-40000000D03*
X132500000Y-40000000D03*
X132000000Y-40000000D03*
X131500000Y-40000000D03*
X131000000Y-40000000D03*
X130500000Y-40000000D03*
X130000000Y-40000000D03*
X129500000Y-40000000D03*
X129000000Y-40000000D03*
X128500000Y-40000000D03*
X128000000Y-40000000D03*
X127500000Y-40000000D03*
X127000000Y-40000000D03*
X126500000Y-40000000D03*
X126000000Y-40000000D03*
X125500000Y-40000000D03*
X125000000Y-40000000D03*
X124500000Y-40000000D03*
X124000000Y-40000000D03*
X123500000Y-40000000D03*
X123000000Y-40000000D03*
X122500000Y-40000000D03*
X122000000Y-40000000D03*
D27*
X145347500Y-46993000D03*
X146897500Y-46993000D03*
D31*
X41851200Y-107324400D03*
X39951200Y-107324400D03*
D43*
X71865000Y-29400000D03*
X71865000Y-27750000D03*
D15*
X78425000Y-52190000D03*
X78425000Y-53840000D03*
D27*
X48260000Y-123190000D03*
X49810000Y-123190000D03*
D20*
X71765000Y-21250000D03*
X70115000Y-21250000D03*
X179067500Y-62943000D03*
X177417500Y-62943000D03*
D47*
X170813500Y-109425000D03*
X169543500Y-109425000D03*
X168273500Y-109425000D03*
X167003500Y-109425000D03*
X167003500Y-114375000D03*
X168273500Y-114375000D03*
X169543500Y-114375000D03*
X170813500Y-114375000D03*
D36*
X77490000Y-35075000D03*
X77490000Y-36625000D03*
D40*
X120900000Y-80125000D03*
X120900000Y-79625000D03*
X120900000Y-79125000D03*
X120900000Y-78625000D03*
X120900000Y-78125000D03*
X120900000Y-77625000D03*
X120900000Y-77125000D03*
X120900000Y-76625000D03*
X120900000Y-76125000D03*
X120900000Y-75625000D03*
X120900000Y-75125000D03*
X120900000Y-74625000D03*
X120900000Y-74125000D03*
X120900000Y-73625000D03*
X120900000Y-73125000D03*
X120900000Y-72625000D03*
X120900000Y-72125000D03*
X120900000Y-71625000D03*
X120900000Y-71125000D03*
X120900000Y-70625000D03*
X120900000Y-70125000D03*
X120900000Y-69625000D03*
X120900000Y-69125000D03*
X120900000Y-68625000D03*
X113475000Y-68625000D03*
X113475000Y-69125000D03*
X113475000Y-69625000D03*
X113475000Y-70125000D03*
X113475000Y-70625000D03*
X113475000Y-71125000D03*
X113475000Y-71625000D03*
X113475000Y-72125000D03*
X113475000Y-72625000D03*
X113475000Y-73125000D03*
X113475000Y-73625000D03*
X113475000Y-74125000D03*
X113475000Y-74625000D03*
X113475000Y-75125000D03*
X113475000Y-75625000D03*
X113475000Y-76125000D03*
X113475000Y-76625000D03*
X113475000Y-77125000D03*
X113475000Y-77625000D03*
X113475000Y-78125000D03*
X113475000Y-78625000D03*
X113475000Y-79125000D03*
X113475000Y-79625000D03*
X113475000Y-80125000D03*
D15*
X59365000Y-33600000D03*
X59365000Y-35250000D03*
D32*
X88250000Y-101175000D03*
X88750000Y-101175000D03*
X89250000Y-101175000D03*
X89750000Y-101175000D03*
X90250000Y-101175000D03*
X90750000Y-101175000D03*
X91250000Y-101175000D03*
X91750000Y-101175000D03*
X92250000Y-101175000D03*
X92750000Y-101175000D03*
X93250000Y-101175000D03*
X93750000Y-101175000D03*
X94250000Y-101175000D03*
X94750000Y-101175000D03*
X95250000Y-101175000D03*
X95750000Y-101175000D03*
X96250000Y-101175000D03*
X96750000Y-101175000D03*
X97250000Y-101175000D03*
X97750000Y-101175000D03*
X98250000Y-101175000D03*
X98750000Y-101175000D03*
X99250000Y-101175000D03*
X99750000Y-101175000D03*
X99750000Y-93750000D03*
X99250000Y-93750000D03*
X98750000Y-93750000D03*
X98250000Y-93750000D03*
X97750000Y-93750000D03*
X97250000Y-93750000D03*
X96750000Y-93750000D03*
X96250000Y-93750000D03*
X95750000Y-93750000D03*
X95250000Y-93750000D03*
X94750000Y-93750000D03*
X94250000Y-93750000D03*
X93750000Y-93750000D03*
X93250000Y-93750000D03*
X92750000Y-93750000D03*
X92250000Y-93750000D03*
X91750000Y-93750000D03*
X91250000Y-93750000D03*
X90750000Y-93750000D03*
X90250000Y-93750000D03*
X89750000Y-93750000D03*
X89250000Y-93750000D03*
X88750000Y-93750000D03*
X88250000Y-93750000D03*
D15*
X75865000Y-35000000D03*
X75865000Y-36650000D03*
D42*
X40632000Y-95996000D03*
X42532000Y-95996000D03*
D25*
X44696000Y-106918000D03*
X44696000Y-108818000D03*
D48*
X114475000Y-60175000D03*
X114475000Y-59225000D03*
X114475000Y-58275000D03*
X112200000Y-58275000D03*
X112200000Y-60175000D03*
D20*
X179067500Y-80723000D03*
X177417500Y-80723000D03*
D22*
X180210000Y-103460000D03*
X179260000Y-103460000D03*
X178310000Y-103460000D03*
X178310000Y-105735000D03*
X180210000Y-105735000D03*
M02*
